<?xml version="1.0" encoding="UTF-8"?>
<svg width="430px" height="430.258516px" viewBox="0 0 430 430.258516" version="1.1" xmlns="http://www.w3.org/2000/svg" xmlns:xlink="http://www.w3.org/1999/xlink">
    <title>编组备份</title>
    <g id="页面-1" stroke="none" stroke-width="1" fill="none" fill-rule="evenodd">
        <g id="登陆页（前台）-1" transform="translate(-45.000000, -325.000000)">
            <g id="编组备份" transform="translate(45.000000, 325.000000)">
                <path d="M54.4238069,77.4862737 C73.5506465,16.7368254 229.151646,-35.3462066 333.885029,30.7887852 C421.591783,86.1733539 452.047636,210.840176 413.730086,261.229703 C402.261591,276.312043 387.99172,280.322729 369.248573,296.095432 C351.813359,310.766841 349.850284,314.512183 348.594009,317.064652 C336.193287,342.260589 362.272139,364.371022 357.023964,385.981294 C348.732551,420.126133 265.799642,438.340941 196.450935,426.785563 C177.747706,423.669532 82.9781069,405.548651 48.120361,330.261406 C45.4227754,324.435579 19.9018502,268.168565 43.9178289,236.867368 C52.2449336,226.011746 58.9459258,227.533365 67.0314032,218.593856 C97.3585767,185.064239 40.2168673,122.610718 54.4238069,77.4862737 Z" id="Fill-3" fill="#DEF1FF"></path>
                <path d="M343.411583,180.858654 L11.8588749,180.858654 C4.54101657,180.858654 -0.323231761,186.668043 0.994565083,193.834679 L41.9279838,416.460629 C43.2457806,423.629613 50.2464003,429.439003 57.5642586,429.439003 L389.116497,429.439003 C396.435764,429.439003 401.298838,423.629613 399.981511,416.460629 L359.048092,193.834679 C357.730765,186.668043 350.728502,180.858654 343.411583,180.858654" id="Fill-11" fill="#FFFFFF"></path>
                <path d="M11.8591097,181.6359 C8.54371881,181.6359 5.67095926,182.892175 3.76940566,185.176951 C1.88006257,187.44529 1.16645163,190.469742 1.75983592,193.693789 L42.692785,416.319739 C43.9436588,423.124755 50.6152989,428.661756 57.5644934,428.661756 L389.116497,428.661756 C392.432122,428.661756 395.303943,427.403133 397.205966,425.120705 C399.096248,422.852367 399.810094,419.827915 399.216005,416.60152 L358.282587,193.97557 C357.033357,187.170553 350.359838,181.6359 343.411583,181.6359 L11.8591097,181.6359 Z M389.116497,430.216249 L57.5644934,430.216249 C49.9009835,430.216249 42.543441,424.108641 41.1629478,416.60152 L0.229998703,193.97557 C-0.447919952,190.288932 0.384273921,186.811282 2.57441846,184.181324 C4.77677352,181.537277 8.07408345,180.081407 11.8591097,180.081407 L343.411583,180.081407 C351.076032,180.081407 358.43287,186.189015 359.813598,193.693789 L400.747017,416.319739 C401.423292,420.008724 400.592037,423.486374 398.401188,426.116332 C396.198598,428.76038 392.901758,430.216249 389.116497,430.216249 L389.116497,430.216249 Z" id="Fill-12" fill="#2D8CF0"></path>
                <path d="M48.5202555,414.39893 L8.26452059,195.459618 C7.47647244,191.174195 10.4185032,187.687152 14.8227437,187.687152 L342.958385,187.687152 C347.363564,187.687152 351.587934,191.174195 352.374574,195.459618 L392.631718,414.39893 C393.418357,418.686701 390.476091,422.171395 386.07326,422.171395 L57.9369142,422.171395 C53.5324389,422.171395 49.3083036,418.686701 48.5202555,414.39893 Z" id="Fill-13" fill="#A1D5FF"></path>
                <path d="M298.007235,265.968324 L224.361365,265.968324 C217.97902,265.968324 213.756998,271.143705 214.931087,277.52605 C216.102827,283.908395 222.22922,289.081428 228.611565,289.081428 L302.257435,289.081428 C308.63978,289.081428 312.861802,283.908395 311.687714,277.52605 C310.513625,271.143705 304.38958,265.968324 298.007235,265.968324" id="Fill-14" fill="#FFFFFF"></path>
                <polyline id="Fill-15" fill="#D2EBFF" points="329.956529 326.128614 214.534245 326.128614 211.392384 309.04328 326.817017 309.04328 329.956529 326.128614"></polyline>
                <polyline id="Fill-16" fill="#D2EBFF" points="335.059118 353.869975 219.634485 353.869975 216.492624 336.786989 331.917257 336.786989 335.059118 353.869975"></polyline>
                <path d="M141.422585,81.8717287 C137.889048,81.8717287 134.813641,83.2273312 132.763448,85.688925 C130.659951,88.2139196 129.86932,91.6025736 130.535967,95.2298023 L156.391038,235.850607 C157.774114,243.371818 165.013543,249.491167 172.527709,249.491167 L257.99665,249.491167 C261.530656,249.491167 264.606768,248.13392 266.656726,245.673031 C268.760693,243.148741 269.54968,239.760322 268.882798,236.132389 L243.027023,95.5108791 C241.643947,87.9903731 234.406866,81.8717287 226.8927,81.8717287 L141.422585,81.8717287 Z M257.99665,251.04566 L172.527709,251.04566 C164.299698,251.04566 156.374601,244.355704 154.86214,236.132389 L129.00613,95.5111139 C128.254479,91.4215291 129.164632,87.579677 131.568696,84.6937677 C133.91969,81.8710243 137.419178,80.3165312 141.422585,80.3165312 L226.8927,80.3165312 C235.120711,80.3165312 243.045808,87.0067218 244.558034,95.2295675 L270.413809,235.850607 C271.165226,239.941131 270.256481,243.782749 267.851948,246.668658 C265.501423,249.491167 262.000292,251.04566 257.99665,251.04566 L257.99665,251.04566 Z" id="Fill-17" fill="#FFFFFF"></path>
                <path d="M257.99665,251.04566 L254.49317,251.04566 C254.063454,251.04566 253.715924,250.69813 253.715924,250.268413 C253.715924,249.838697 254.063454,249.491167 254.49317,249.491167 L257.99665,249.491167 C261.530656,249.491167 264.606768,248.13392 266.656726,245.673031 C268.760693,243.148741 269.54968,239.760322 268.882798,236.132389 L262.643692,202.196537 C262.566202,201.773865 262.845635,201.36763 263.268307,201.290141 C263.693327,201.210303 264.097214,201.492084 264.174703,201.914756 L270.413809,235.850607 C271.165226,239.941131 270.256481,243.782749 267.851948,246.668658 C265.501423,249.491167 262.000292,251.04566 257.99665,251.04566" id="Fill-18" fill="#80BEF1"></path>
                <path d="M256.416327,168.328782 L243.027023,95.5111139 C241.643947,87.9903731 234.406866,81.8717287 226.8927,81.8717287 L141.422585,81.8717287 C137.889048,81.8717287 134.813641,83.2273312 132.763448,85.688925 C130.659951,88.2139196 129.86932,91.6025736 130.535967,95.2298023 L136.992984,130.345848 C137.070474,130.768285 136.791041,131.173815 136.368839,131.251305 C135.944523,131.329969 135.540637,131.049596 135.463147,130.627394 L129.00613,95.5111139 C128.254479,91.4215291 129.164632,87.579677 131.568696,84.6937677 C133.91969,81.8710243 137.419178,80.3165312 141.422585,80.3165312 L226.8927,80.3165312 C235.120711,80.3165312 243.045808,87.0067218 244.558034,95.2295675 L257.947338,168.047001 C258.024828,168.469673 257.745395,168.873559 257.322723,168.951049 C257.27576,168.960442 257.226448,168.965138 257.179485,168.965138 C256.813169,168.965138 256.484424,168.702142 256.416327,168.328782 Z" id="Fill-19" fill="#80BEF1"></path>
                <path d="M165.135649,125.32662 C162.369496,110.292887 172.306981,98.1053797 187.328268,98.1053797 C202.349555,98.1053797 216.767361,110.292887 219.531165,125.32662 C222.294969,140.360822 212.359833,152.546686 197.338546,152.546686 C182.317259,152.546686 167.899453,140.360822 165.135649,125.32662" id="Fill-20" fill="#FFFFFF"></path>
                <path d="M197.338546,153.32628 C181.983817,153.32628 167.195,140.828344 164.370143,125.46751 C163.761965,122.16433 163.738483,118.928073 164.295001,115.848439 C164.372491,115.426002 164.776378,115.146803 165.199049,115.22171 C165.621721,115.298496 165.903502,115.703087 165.826013,116.125524 C165.302369,119.019886 165.325851,122.06829 165.898806,125.186199 C168.594513,139.844693 182.697663,151.769439 197.338546,151.769439 C204.279757,151.769439 210.326312,149.097214 214.367524,144.245881 C218.516753,139.266572 220.07829,132.597515 218.768008,125.467276 C216.072301,110.808782 201.969151,98.8830959 187.328268,98.8830959 C179.436046,98.8830959 172.680341,102.374365 168.796456,108.462014 C168.566335,108.824103 168.084959,108.929536 167.72334,108.699414 C167.36172,108.468119 167.253704,107.987447 167.486174,107.625358 C171.661232,101.081224 178.893617,97.3278983 187.328268,97.3278983 C202.682996,97.3278983 217.471814,109.82513 220.296671,125.185964 C221.691488,132.778559 220.010193,139.901049 215.562746,145.241273 C211.220967,150.45446 204.749392,153.32628 197.338546,153.32628" id="Fill-21" fill="#DEF1FF"></path>
                <path d="M177.944953,111.931915 C173.579693,119.566307 182.22568,126.407016 180.61483,131.159726 C179.006329,135.912905 171.064795,138.505058 171.064795,138.505058 C171.064795,138.505058 174.756129,143.906334 178.539042,146.282454 L214.048172,146.282454 C214.048172,146.282454 219.918614,138.28926 219.500639,136.020922 C219.500639,136.020922 211.542668,135.588622 209.753357,128.783371 C207.961698,121.978354 210.180725,117.730737 202.044292,110.041867 C193.619034,102.080608 188.62681,107.418954 188.62681,107.418954 C188.62681,107.418954 182.887866,103.28217 177.944953,111.931915 Z" id="Fill-22" fill="#DEF1FF"></path>
                <path d="M177.315642,145.123159 C183.031104,149.724177 190.113206,152.549034 197.338546,152.549034 C204.563886,152.549034 210.605745,149.724177 214.63052,145.123159 C208.675544,143.376351 202.164049,142.394108 195.471745,142.394108 C188.779441,142.394108 182.629566,143.376351 177.315642,145.123159" id="Fill-23" fill="#A1D5FF"></path>
                <path d="M178.973455,145.420204 C184.533938,149.524582 191.003165,151.769439 197.338546,151.769439 C203.615223,151.769439 209.194491,149.562153 213.195784,145.524932 C207.463884,143.962925 201.50656,143.171824 195.471745,143.171824 C189.570777,143.171824 184.02908,143.927468 178.973455,145.420204 Z M197.338546,153.32628 C190.200088,153.32628 182.916044,150.628225 176.827221,145.728754 C176.606493,145.550058 176.498476,145.264285 176.550136,144.983913 C176.601796,144.703305 176.801391,144.473184 177.071432,144.384423 C182.660092,142.547679 188.849887,141.616627 195.471745,141.616627 C202.084211,141.616627 208.60275,142.545331 214.851249,144.376909 C215.104852,144.451346 215.304447,144.650941 215.37724,144.905483 C215.452382,145.160495 215.391329,145.435232 215.217564,145.635062 C210.878134,150.595351 204.528663,153.32628 197.338546,153.32628 L197.338546,153.32628 Z" id="Fill-24" fill="#A1D5FF"></path>
                <path d="M196.479113,146.994891 L196.479113,146.994891 C194.107455,146.994891 191.832071,145.071265 191.39531,142.698432 L187.368187,120.789707 L195.953122,120.789707 L199.982593,142.698432 C200.417006,145.071265 198.850772,146.994891 196.479113,146.994891" id="Fill-25" fill="#FFFFFF"></path>
                <path d="M188.302761,121.567423 L192.160816,142.557541 C192.531828,144.575565 194.469074,146.217175 196.479113,146.217175 C197.376117,146.217175 198.153363,145.879272 198.662918,145.265459 C199.191257,144.631686 199.388504,143.769905 199.217087,142.839088 L195.305025,121.567423 L188.302761,121.567423 Z M196.479113,147.772373 C193.755228,147.772373 191.132314,145.559451 190.632153,142.839088 L186.602681,120.930363 C186.562762,120.703529 186.623815,120.469651 186.77175,120.292363 C186.919685,120.114841 187.138066,120.012226 187.368187,120.012226 L195.953122,120.012226 C196.32883,120.012226 196.65053,120.280388 196.718627,120.649051 L200.74575,142.557541 C201.001702,143.95095 200.687046,145.265694 199.85814,146.260616 C199.04567,147.235579 197.845752,147.772373 196.479113,147.772373 L196.479113,147.772373 Z" id="Fill-26" fill="#DEF1FF"></path>
                <path d="M194.586483,136.020922 C199.414334,136.020922 202.607855,132.103223 201.720244,127.271145 L200.773929,122.117601 C199.914496,117.447078 195.434174,113.660642 190.768347,113.660642 L181.732563,113.660642 L184.235719,127.271145 C184.886164,130.811726 187.548997,133.861068 190.824703,135.238744 L194.586483,136.020922" id="Fill-27" fill="#FFFFFF"></path>
                <path d="M194.586483,136.798638 C194.156766,136.798638 193.809236,136.450403 193.809236,136.020922 C193.809236,135.59144 194.156766,135.24344 194.586483,135.24344 C196.657575,135.24344 198.458626,134.45187 199.656196,133.014786 C200.886641,131.536608 201.349232,129.546998 200.954738,127.411801 L200.008423,122.258492 C199.214739,117.9463 195.070207,114.438359 190.768347,114.438359 L182.667137,114.438359 L185.001225,127.130724 C185.583573,130.301232 187.988106,133.20217 191.12527,134.521845 C191.522112,134.688331 191.707618,135.144112 191.540897,135.540015 C191.374177,135.935683 190.91863,136.121424 190.524137,135.955407 C186.914989,134.438016 184.146488,131.084349 183.470213,127.411801 L180.967057,113.801298 C180.927138,113.574464 180.988191,113.340586 181.136126,113.163299 C181.284061,112.985776 181.502441,112.883161 181.732563,112.883161 L190.768347,112.883161 C195.784053,112.883161 200.616601,116.962649 201.537086,121.97718 L202.48575,127.130489 C202.962429,129.727808 202.38243,132.171086 200.851418,134.009943 C199.353282,135.808412 197.12721,136.798638 194.586483,136.798638" id="Fill-28" fill="#DEF1FF"></path>
                <path d="M191.07361,113.984691 L183.686246,122.517965 L182.056611,113.660877 C182.056611,113.660877 191.113529,114.200958 191.07361,113.984691" id="Fill-29" fill="#DEF1FF"></path>
                <path d="M237.025083,201.649412 L169.176861,201.649412 C167.612975,201.649412 166.11249,200.381396 165.823664,198.81751 L165.823664,198.815162 C165.537187,197.251276 166.570385,195.983261 168.13427,195.983261 L235.98484,195.983261 C237.548726,195.983261 239.049211,197.251276 239.335689,198.815162 L239.335689,198.81751 C239.624514,200.381396 238.588968,201.649412 237.025083,201.649412" id="Fill-30" fill="#8DC9FA"></path>
                <path d="M251.320783,216.478148 L171.381799,216.478148 C169.817913,216.478148 168.317428,215.210133 168.030951,213.646247 L168.030951,213.643899 C167.742125,212.080013 168.777671,210.811998 170.341557,210.811998 L250.278193,210.811998 C251.842079,210.811998 253.342564,212.080013 253.629041,213.643899 L253.631389,213.646247 C253.917867,215.210133 252.882321,216.478148 251.320783,216.478148" id="Fill-31" fill="#8DC9FA"></path>
                <path d="M222.050759,175.173718 L187.302438,175.173718 C184.991832,175.173718 182.772805,173.299873 182.347785,170.989267 L182.347785,170.98457 C181.922765,168.673964 183.451428,166.800119 185.762034,166.800119 L220.510355,166.800119 C222.823309,166.800119 225.039988,168.673964 225.465008,170.98457 L225.467356,170.989267 C225.892376,173.299873 224.361365,175.173718 222.050759,175.173718" id="Fill-32" fill="#8DC9FA"></path>
                <path d="M120.757455,25.0930475 C119.746564,25.0930475 19.5984658,25.1324969 18.0604099,25.2059948 C14.4212055,25.6425209 11.2643165,27.4198559 9.21036622,30.2071418 C7.04722571,33.1437718 6.26269983,36.9745875 7.0019059,40.9930225 L37.4326341,206.498397 C39.0726008,215.419121 47.6615272,222.679683 56.5782591,222.679683 L157.372576,222.679683 C161.578161,222.679683 165.238968,221.064138 167.681072,218.131265 C170.184229,215.125599 171.128196,211.093779 170.334512,206.77783 L139.903784,41.2745689 C138.263113,32.3519666 129.674421,25.0930475 120.757455,25.0930475 Z M157.372576,224.234177 L56.5782591,224.234177 C46.9472118,224.234177 37.6719133,216.403007 35.902562,206.77783 L5.47183387,41.2745689 C4.65490315,36.8290005 5.53781764,32.5710515 7.95855315,29.284778 C10.2696288,26.1483182 13.8055135,24.1497848 17.9157622,23.6583114 C18.5626849,23.5808216 103.69748,23.5444249 120.756985,23.53785 C130.388737,23.53785 139.6638,31.3683153 141.433621,40.9930225 L171.863175,206.498397 C172.741393,211.274589 171.680018,215.759606 168.876294,219.126892 C166.133624,222.421384 162.047796,224.234177 157.372576,224.234177 L157.372576,224.234177 Z" id="Fill-33" fill="#80BEF1"></path>
                <path d="M24.2055887,139.643689 C23.8376294,139.643689 23.5105284,139.381397 23.4417268,139.006628 L5.47183387,41.2745689 C4.65490315,36.8290005 5.53781764,32.5710515 7.95855315,29.284778 C10.2696288,26.1483182 13.8055135,24.1497848 17.9157622,23.6583114 C18.5626849,23.5808216 103.69748,23.5444249 120.756985,23.53785 C130.388737,23.53785 139.6638,31.3683153 141.433621,40.9930225 L147.391416,73.3988022 C147.468905,73.8210044 147.189472,74.2265346 146.76727,74.3037896 C146.343189,74.3824535 145.939068,74.1020812 145.861813,73.679879 L139.903784,41.2745689 C138.263113,32.3519666 129.674421,25.0930475 120.757455,25.0930475 C119.746564,25.0935171 19.5984658,25.1324969 18.0604099,25.2059948 C14.4212055,25.6425209 11.2643165,27.4198559 9.21036622,30.2071418 C7.04722571,33.1440066 6.26269983,36.9745875 7.0019059,40.9930225 L24.971564,138.725317 C25.0490538,139.147754 24.7696208,139.553284 24.3474186,139.630539 C24.2997506,139.639462 24.2520826,139.643689 24.2055887,139.643689" id="Fill-34" fill="#A1D5FF"></path>
                <path d="M112.499856,224.234177 L71.8907203,224.234177 C71.4614736,224.234177 71.113239,223.886646 71.113239,223.45693 C71.113239,223.027214 71.4614736,222.679683 71.8907203,222.679683 L112.499856,222.679683 C112.929337,222.679683 113.277337,223.027214 113.277337,223.45693 C113.277337,223.886646 112.929337,224.234177 112.499856,224.234177" id="Fill-35" fill="#FFFFFF"></path>
                <path d="M105.884102,133.379692 L78.2413646,133.379692 C76.4036814,133.379692 74.6402006,131.890009 74.3022979,130.052326 C73.9643953,128.214642 75.1802813,126.724959 77.0177296,126.724959 L104.660467,126.724959 C106.498151,126.724959 108.261866,128.214642 108.599769,130.052326 C108.937437,131.890009 107.721786,133.379692 105.884102,133.379692" id="Fill-36" fill="#8DC9FA"></path>
                <path d="M142.40788,151.633245 L48.4298507,151.633245 C46.5921675,151.633245 44.8284518,150.142153 44.4905492,148.305174 C44.1526465,146.467256 45.3685325,144.977807 47.2062157,144.977807 L141.18448,144.977807 C143.021928,144.977807 144.785644,146.467256 145.123546,148.305174 C145.461214,150.142153 144.245563,151.633245 142.40788,151.633245" id="Fill-37" fill="#8DC9FA"></path>
                <path d="M144.763336,164.44255 L50.7853069,164.44255 C48.9476237,164.44255 47.1841428,162.953805 46.8462402,161.115183 C46.5083376,159.278909 47.7239887,157.787816 49.5616719,157.787816 L143.539936,157.787816 C145.377619,157.787816 147.1411,159.278909 147.479003,161.115183 C147.816905,162.953805 146.601019,164.44255 144.763336,164.44255" id="Fill-38" fill="#8DC9FA"></path>
                <path d="M60.7000139,97.5199792 C67.433411,102.93464 75.7757789,106.259893 84.2881548,106.259893 C92.8005306,106.259893 99.9197332,102.93464 104.662111,97.5199792 C97.6457587,95.4636807 89.9759087,94.3074385 82.0904961,94.3074385 C74.2050834,94.3074385 66.9595489,95.4636807 60.7000139,97.5199792" id="Fill-39" fill="#A1D5FF"></path>
                <path d="M89.6861437,75.8672057 L90.8412119,65.7860129 C91.2772683,61.9716344 89.0028242,57.864908 85.2603,55.7097513 C83.6461632,54.7796384 81.8737593,54.285582 80.1563028,54.285582 L70.045523,54.285582 C67.7886902,54.285582 65.7718411,55.1389095 64.3998014,56.6753216 L63.9400283,57.1898071 C61.7611551,59.629328 61.5385479,63.401909 63.3748222,66.7752998 L68.3952243,76.000817 L89.6861437,75.8672057" id="Fill-40" fill="#A1D5FF"></path>
                <path d="M76.3125721,59.0178628 L65.1199872,59.0178628 L68.16886,75.6006876 C68.7993455,79.0294955 70.8122027,82.0797772 74.0796908,84.0564725 L75.7584024,93.1873581 C76.422232,96.7972104 79.8839143,99.7232735 83.4937666,99.7232735 C87.1036188,99.7232735 89.4898361,96.7972104 88.8262413,93.1873581 L87.1928495,84.3042051 C89.251731,82.3406596 90.6056898,79.174378 89.9484351,75.6006876 L88.7799823,69.2451122 C87.7207197,63.4847996 82.0721803,59.0178628 76.3125721,59.0178628" id="Fill-41" fill="#FFFFFF"></path>
                <path d="M83.2770298,100.500755 C79.3158903,100.500755 75.5017467,97.283283 74.7742815,93.3282487 L73.110833,84.2816626 C73.0333432,83.8589908 73.3127762,83.4536955 73.7349784,83.3762056 C74.159294,83.2963676 74.5631804,83.5781488 74.6406702,84.0001162 L76.3041187,93.0467023 C76.9019645,96.2996317 80.0302057,98.9455574 83.2770298,98.9455574 C84.7674177,98.9455574 86.0607935,98.3787075 86.917878,97.3495016 C87.7991488,96.2911783 88.1293025,94.8630171 87.8468168,93.3282487 L86.2521699,84.6545531 C86.1746801,84.2323509 86.4541131,83.8268208 86.8763153,83.7493309 C87.3006308,83.670667 87.7045173,83.9510393 87.7820071,84.3734763 L89.376654,93.0469371 C89.743674,95.0440615 89.2951723,96.9254208 88.1131,98.3446589 C86.9547444,99.7350144 85.2377575,100.500755 83.2770298,100.500755" id="Fill-42" fill="#A1D5FF"></path>
                <path d="M80.9847396,87.1692157 C80.5554929,87.1692157 80.2072582,86.8212159 80.2072582,86.3914995 C80.2072582,85.962018 80.5554929,85.6140182 80.9847396,85.6140182 C83.5984952,85.6140182 85.8710608,84.6136948 87.3839911,82.7971452 C88.9373101,80.932458 89.5203624,78.4267185 89.026306,75.7413434 L87.8578532,69.3855332 C86.8652789,63.9856657 81.6692331,59.5924617 76.2752361,59.5924617 L66.0564401,59.5924617 L68.9742847,75.4600319 C69.7038632,79.42939 72.7139911,83.0603758 76.6422562,84.7106745 C77.0381588,84.8769254 77.224604,85.3327066 77.0578835,85.7286092 C76.8913977,86.124277 76.435147,86.3116615 76.0399488,86.1442365 C71.6406395,84.2964561 68.266779,80.2129766 67.4444475,75.7413434 L64.3580038,58.9554013 C64.3166759,58.7283326 64.3777285,58.4944542 64.5256637,58.3171668 C64.6735988,58.1396446 64.8922141,58.0372641 65.1230398,58.0372641 L76.2752361,58.0372641 C82.3835485,58.0372641 88.2654967,63.0020144 89.3876904,69.1046912 L90.5561432,75.4602667 C91.134734,78.6077629 90.4326291,81.5667006 88.5787435,83.7923026 C86.7654813,85.9700018 84.0683654,87.1692157 80.9847396,87.1692157" id="Fill-43" fill="#A1D5FF"></path>
                <path d="M82.8805263,58.4150858 L67.53133,69.7389338 L65.5229344,58.8149803 C65.5229344,58.8149803 82.9294997,58.6816039 82.8805263,58.4150858" id="Fill-44" fill="#A1D5FF"></path>
                <path d="M84.2536366,107.013189 C76.1296492,107.013189 67.7311599,104.007757 60.6408399,98.4625374 C45.0775934,86.2909975 40.3579928,65.5030576 50.1198335,52.1222067 C59.4381037,39.3497684 78.8079797,37.7649838 94.2176554,48.514233 C94.5701167,48.7598522 94.6562948,49.2447508 94.4106755,49.5969773 C94.1645866,49.9494386 93.6796881,50.0349123 93.3276963,49.7897626 C78.618247,39.5282298 60.1902247,40.9554517 51.376343,53.0389349 C42.102923,65.7496162 46.6889124,85.576917 61.5986612,97.2374935 C69.6496203,103.53366 79.4321251,106.427084 88.4399663,105.171044 C95.4565535,104.193733 101.473991,100.703637 105.38488,95.3429845 C110.229873,88.7018707 111.474642,79.744985 108.800303,70.7688442 C108.677963,70.3574436 108.911842,69.9244398 109.323242,69.8018649 C109.733938,69.6799946 110.167647,69.9126989 110.290691,70.3250387 C113.104746,79.7701105 111.774974,89.2229311 106.641155,96.2597127 C102.47995,101.963434 96.0922049,105.675197 88.6548244,106.711213 C87.203886,106.913626 85.7322835,107.013189 84.2536366,107.013189" id="Fill-45" fill="#DEF1FF"></path>
                <path d="M173.64779,391.088578 C175.397181,400.605739 170.036294,408.321848 161.66974,408.321848 L70.8976763,408.321848 C62.5325311,408.321848 54.3326976,400.605739 52.5828362,391.088578 L20.1594452,214.745194 C18.409349,205.228033 23.7718805,197.511924 32.1370256,197.511924 L122.909559,197.511924 C131.274469,197.511924 139.474302,205.228033 141.224399,214.745194 L173.64779,391.088578" id="Fill-46" fill="#FFFFFF"></path>
                <path d="M161.66974,409.099095 L70.8976763,409.099095 C62.1892277,409.099095 53.6298883,401.082419 51.818035,391.229469 L19.3944092,214.886085 C18.4316567,209.647302 19.5306034,204.662123 22.4099379,201.205606 C24.8111835,198.322045 28.2651168,196.734678 32.1367908,196.734678 L122.909559,196.734678 C131.618712,196.734678 140.177816,204.751353 141.988965,214.604303 L159.650308,310.654129 C159.727797,311.076801 159.448364,311.483035 159.025693,311.560525 C158.600672,311.638015 158.196786,311.358582 158.119296,310.93591 L140.459128,214.886085 C138.776894,205.735239 130.904396,198.289171 122.909559,198.289171 L32.1367908,198.289171 C28.7354567,198.289171 25.7051345,199.679291 23.6046903,202.201233 C21.0219306,205.300827 20.0448542,209.823415 20.9242464,214.604303 L53.3481071,390.947688 C55.0308106,400.098533 62.9033083,407.544602 70.8976763,407.544602 L161.66974,407.544602 C165.072248,407.544602 168.101396,406.154481 170.203014,403.632539 C172.786009,400.532946 173.76285,396.010357 172.882284,391.229469 L162.165205,332.940675 C162.087715,332.518003 162.367148,332.114117 162.78982,332.036627 C163.21484,331.956789 163.618726,332.23857 163.696216,332.658894 L174.413295,390.947688 C175.376048,396.184122 174.277101,401.17165 171.398236,404.628166 C168.996051,407.511727 165.541883,409.099095 161.66974,409.099095" id="Fill-47" fill="#2D8CF0"></path>
                <path d="M107.174191,295.299401 L82.2273948,295.299401 C80.5688775,295.299401 78.9772832,293.956243 78.6724899,292.296082 C78.3674617,290.638269 79.4647647,289.292764 81.1230472,289.292764 L106.070078,289.292764 C107.72836,289.292764 109.319955,290.638269 109.624983,292.296082 C109.930011,293.956243 108.832708,295.299401 107.174191,295.299401" id="Fill-48" fill="#78B4E5"></path>
                <path d="M140.347824,312.922468 L55.5344945,312.922468 C53.876212,312.922468 52.284383,311.579311 51.9795896,309.91915 C51.6745614,308.261337 52.7718645,306.91818 54.4303818,306.91818 L139.243477,306.91818 C140.901994,306.91818 142.493588,308.261337 142.798616,309.91915 C143.10341,311.579311 142.006342,312.922468 140.347824,312.922468" id="Fill-49" fill="#8DC9FA"></path>
                <path d="M142.755175,326.015902 L57.9418454,326.015902 C56.2833281,326.015902 54.6917339,324.670396 54.3867057,323.012584 C54.0819123,321.354771 55.1789805,320.009265 56.8374978,320.009265 L141.650828,320.009265 C143.309345,320.009265 144.900939,321.354771 145.205733,323.012584 C145.510761,324.670396 144.413458,326.015902 142.755175,326.015902" id="Fill-50" fill="#8DC9FA"></path>
                <path d="M135.419706,365.509888 L64.9854367,365.509888 C63.3269194,365.509888 61.7353251,364.164383 61.4305318,362.50657 C61.1255036,360.848757 62.2228066,359.503252 63.8810891,359.503252 L134.315358,359.503252 C135.973875,359.503252 137.56547,360.848757 137.870263,362.50657 C138.175291,364.164383 137.077988,365.509888 135.419706,365.509888" id="Fill-51" fill="#8DC9FA"></path>
                <path d="M152.206117,378.600974 L67.3927876,378.600974 C65.7342703,378.600974 64.142676,377.257817 63.8376478,375.600004 C63.5328545,373.939843 64.6301575,372.596686 66.28844,372.596686 L151.10177,372.596686 C152.760287,372.596686 154.351881,373.939843 154.656675,375.600004 C154.961703,377.257817 153.8644,378.600974 152.206117,378.600974" id="Fill-52" fill="#8DC9FA"></path>
                <path d="M121.716685,390.677647 L69.6129888,390.677647 C67.9544715,390.677647 66.3628772,389.332142 66.057849,387.674329 C65.7530557,386.016516 66.8503587,384.671011 68.5086412,384.671011 L120.612572,384.671011 C122.270854,384.671011 123.862684,386.016516 124.167477,387.674329 C124.47227,389.332142 123.375202,390.677647 121.716685,390.677647" id="Fill-53" fill="#8DC9FA"></path>
                <path d="M117.121537,339.109336 L60.3491963,339.109336 C58.690679,339.109336 57.0990848,337.763831 56.7940566,336.106018 C56.4892632,334.448205 57.5863314,333.102699 59.2448487,333.102699 L116.01719,333.102699 C117.675472,333.102699 119.267301,334.448205 119.572095,336.106018 C119.877123,337.763831 118.77982,339.109336 117.121537,339.109336" id="Fill-54" fill="#8DC9FA"></path>
                <path d="M147.569642,352.200422 L62.7565472,352.200422 C61.0980299,352.200422 59.5064356,350.857265 59.2014075,349.199452 C58.8966141,347.539291 59.9936823,346.196134 61.6521996,346.196134 L146.465295,346.196134 C148.123812,346.196134 149.715406,347.539291 150.020434,349.199452 C150.325462,350.857265 149.228159,352.200422 147.569642,352.200422" id="Fill-55" fill="#8DC9FA"></path>
                <path d="M77.7332191,257.49845 C71.982534,257.49845 66.7141645,252.109384 67.0753141,246.530116 C67.6703421,237.360485 70.4989559,225.513933 80.9549177,223.839683 C91.8535109,222.097336 100.428818,235.780162 105.307625,246.224853 C107.950733,251.883959 104.699682,257.49845 98.8191427,257.49845 L77.7332191,257.49845" id="Fill-56" fill="#000000"></path>
                <path d="M90.048937,275.584108 C98.3088839,275.382165 103.5371,273.592854 108.479307,267.952533 C101.167554,265.808648 97.7326413,265.71472 89.5151964,265.71472 C81.2979864,265.71472 76.3856004,266.125651 69.8623652,268.269537 C69.8623652,268.269537 79.1043196,275.8518 90.048937,275.584108" id="Fill-57" fill="#2D8CF0"></path>
                <path d="M69.7177175,269.079658 C69.3779363,269.079658 69.0660984,268.856581 68.9693535,268.511399 C68.8533536,268.100468 69.0945113,267.670752 69.5075556,267.553343 C75.6874875,265.815692 82.419006,264.935126 89.5154312,264.935126 C95.9003589,264.935126 102.275894,265.653668 108.464749,267.06727 C108.883429,267.163546 109.145016,267.579173 109.049445,267.999497 C108.954109,268.417472 108.539186,268.67812 108.118393,268.584193 C102.04319,267.194072 95.7838893,266.491967 89.5154312,266.491967 C82.5613055,266.491967 75.9709124,267.3514 69.9285837,269.05148 C69.8583733,269.070265 69.7874583,269.079658 69.7177175,269.079658" id="Fill-58" fill="#000000"></path>
                <path d="M90.7827423,271.526458 L90.7827423,271.526458 C87.8719423,271.526458 85.0783163,269.16654 84.5431668,266.257149 L78.7419959,234.707045 L89.2824921,234.707045 L95.0834282,266.257149 C95.6188125,269.16654 93.6935423,271.526458 90.7827423,271.526458" id="Fill-59" fill="#FFFFFF"></path>
                <path d="M79.675631,235.484292 L85.307968,266.116259 C85.7778382,268.671075 88.2335615,270.749212 90.7825075,270.749212 C91.9387497,270.749212 92.9400124,270.312451 93.6017286,269.516419 C94.2836391,268.699253 94.5381815,267.590914 94.318627,266.395692 L88.6350997,235.484292 L79.675631,235.484292 Z M90.7825075,272.303705 C87.5192461,272.303705 84.3771507,269.654961 83.7781308,266.395692 L77.9771947,234.845588 C77.9358668,234.620163 77.9969194,234.385345 78.1448545,234.209232 C78.2927897,234.03077 78.5114049,233.927451 78.7422307,233.927451 L89.2824921,233.927451 C89.6577308,233.927451 89.9796658,234.197491 90.0472933,234.566155 L95.8482294,266.116259 C96.1525531,267.771723 95.7789582,269.333261 94.7969506,270.512046 C93.8339633,271.667349 92.4083851,272.303705 90.7825075,272.303705 L90.7825075,272.303705 Z" id="Fill-60" fill="#000000"></path>
                <path d="M83.3338557,252.431084 C79.6063598,250.740397 76.5429283,246.999751 75.7443133,242.655624 L74.7139333,237.052874 C73.5875129,230.926481 77.2476161,225.960087 82.889111,225.960087 C88.1652296,225.960087 93.2964656,230.60478 94.3498577,236.334332 L95.5122053,242.655624 C96.6019941,248.58477 93.060239,253.38914 87.6016671,253.38914 L83.3338557,252.431084" id="Fill-61" fill="#FFFFFF"></path>
                <path d="M87.6019019,254.168735 C87.1726552,254.168735 86.8241858,253.818857 86.8241858,253.38914 C86.8241858,252.961772 87.1726552,252.611894 87.6019019,252.611894 C89.8242165,252.611894 91.7863531,251.726631 93.1262228,250.115782 C94.6708535,248.26307 95.2616548,245.595541 94.7471693,242.796514 L93.5850565,236.475222 C92.597883,231.10729 87.7996184,226.739681 82.8893458,226.739681 C80.5843754,226.739681 78.5492106,227.657818 77.1590899,229.327372 C75.5585725,231.248181 74.9459332,234.014333 75.4789694,236.911983 L76.5091145,242.517081 C77.2356404,246.471411 80.0405377,250.085255 83.6553211,251.721935 C84.0465274,251.900396 84.219588,252.360639 84.0423007,252.750436 C83.8647785,253.142582 83.4057099,253.316347 83.0133296,253.137885 C78.9491051,251.296915 75.7955036,247.236917 74.9792773,242.796514 L73.9491321,237.193765 C73.3325009,233.840568 74.0670106,230.609477 75.9645723,228.331745 C77.6552596,226.300572 80.1145053,225.18284 82.8893458,225.18284 C88.5139338,225.18284 93.9981008,230.123404 95.1148937,236.193441 L96.2770065,242.517081 C96.8748523,245.769306 96.1621806,248.901774 94.3214448,251.111409 C92.680304,253.081529 90.2938519,254.168735 87.6019019,254.168735" id="Fill-62" fill="#000000"></path>
                <path d="M74.0853264,234.042511 L94.62389,234.042511 C94.62389,234.042511 93.4678825,229.989558 89.2937634,227.275066 C85.7430851,224.969156 81.5302211,224.748427 78.2787006,226.340491 C76.0737625,227.418304 73.9465491,229.360247 74.125715,232.821459 L74.0853264,234.042511" id="Fill-63" fill="#000000"></path>
                <path d="M90.2144835,276.272124 C81.3000997,276.272124 71.7662669,272.34832 64.4796394,264.831806 C57.6767363,257.815454 53.9215318,248.76558 54.1767787,240.00688 C54.3782522,233.100892 57.115522,226.885268 61.8851388,222.505918 C73.0826549,212.2256 92.465211,214.461065 105.092532,227.48875 C109.285671,231.814091 112.375402,236.975384 114.02711,242.41611 C114.151798,242.827041 113.919798,243.261453 113.508867,243.385907 C113.101224,243.51036 112.664463,243.277891 112.538836,242.86696 C110.958747,237.6634 107.997931,232.718139 103.975974,228.568911 C91.9295919,216.142359 73.5184765,213.935073 62.937122,223.651829 C58.4791083,227.742353 55.9200652,233.568179 55.7315066,240.051496 C55.4882354,248.394568 59.0842335,257.031162 65.5961975,263.749296 C77.6435188,276.178196 96.0532252,278.383135 106.635284,268.668727 C111.183703,264.493669 113.745798,258.538692 113.848883,251.902744 C113.855693,251.477724 114.202284,251.137239 114.6266,251.137239 C114.630591,251.137239 114.634583,251.137239 114.63881,251.137239 C115.068057,251.144283 115.410656,251.49651 115.404402,251.926226 C115.293717,258.994238 112.552925,265.346057 107.687033,269.814637 C102.95123,274.163461 96.74899,276.272124 90.2144835,276.272124" id="Fill-65" fill="#000000"></path>
                <path d="M86.1331173,247.286229 C86.1331173,247.286229 86.1331173,247.286229 86.1326477,247.286229 C84.8528913,247.286229 83.6663575,246.771978 82.7904876,245.839752 C82.4969655,245.525096 82.5119938,245.034327 82.8254754,244.738457 C83.1377829,244.447283 83.6309001,244.461372 83.9244222,244.773679 C84.5032478,245.39125 85.287304,245.729387 86.1331173,245.729387 C86.9791654,245.729387 87.7636913,245.39125 88.3422821,244.773679 C88.6369783,244.461372 89.1291562,244.444935 89.4414637,244.740805 C89.7549453,245.034327 89.7699736,245.525096 89.4764515,245.839752 C88.6001119,246.771978 87.4128737,247.286229 86.1331173,247.286229" id="Fill-64" fill="#000000"></path>
                <path d="M235.137149,317.585947 C235.137149,319.398739 233.66719,320.868698 231.854397,320.868698 C230.039257,320.868698 228.571646,319.398739 228.571646,317.585947 C228.571646,315.773154 230.039257,314.303196 231.854397,314.303196 C233.66719,314.303196 235.137149,315.773154 235.137149,317.585947" id="Fill-66" fill="#2D8CF0"></path>
                <path d="M247.577789,317.585947 C247.577789,319.398739 246.107831,320.868698 244.295038,320.868698 C242.482246,320.868698 241.012287,319.398739 241.012287,317.585947 C241.012287,315.773154 242.482246,314.303196 244.295038,314.303196 C246.107831,314.303196 247.577789,315.773154 247.577789,317.585947" id="Fill-67" fill="#2D8CF0"></path>
                <path d="M260.01843,317.585947 C260.01843,319.398739 258.548472,320.868698 256.735679,320.868698 C254.922887,320.868698 253.452928,319.398739 253.452928,317.585947 C253.452928,315.773154 254.922887,314.303196 256.735679,314.303196 C258.548472,314.303196 260.01843,315.773154 260.01843,317.585947" id="Fill-68" fill="#2D8CF0"></path>
                <path d="M272.461419,317.585947 C272.461419,319.398739 270.991461,320.868698 269.17632,320.868698 C267.363528,320.868698 265.893569,319.398739 265.893569,317.585947 C265.893569,315.773154 267.363528,314.303196 269.17632,314.303196 C270.991461,314.303196 272.461419,315.773154 272.461419,317.585947" id="Fill-69" fill="#2D8CF0"></path>
                <path d="M241.357469,345.113624 C241.357469,346.928765 239.88751,348.398723 238.074718,348.398723 C236.261925,348.398723 234.791967,346.928765 234.791967,345.113624 C234.791967,343.300832 236.261925,341.830873 238.074718,341.830873 C239.88751,341.830873 241.357469,343.300832 241.357469,345.113624" id="Fill-70" fill="#2D8CF0"></path>
                <path d="M253.79811,345.113624 C253.79811,346.928765 252.328151,348.398723 250.515359,348.398723 C248.702566,348.398723 247.232607,346.928765 247.232607,345.113624 C247.232607,343.300832 248.702566,341.830873 250.515359,341.830873 C252.328151,341.830873 253.79811,343.300832 253.79811,345.113624" id="Fill-71" fill="#2D8CF0"></path>
                <path d="M266.238751,345.113624 C266.238751,346.928765 264.768792,348.398723 262.956,348.398723 C261.143207,348.398723 259.673248,346.928765 259.673248,345.113624 C259.673248,343.300832 261.143207,341.830873 262.956,341.830873 C264.768792,341.830873 266.238751,343.300832 266.238751,345.113624" id="Fill-72" fill="#2D8CF0"></path>
                <path d="M278.68174,345.113624 C278.68174,346.928765 277.211781,348.398723 275.398989,348.398723 C273.583848,348.398723 272.113889,346.928765 272.113889,345.113624 C272.113889,343.300832 273.583848,341.830873 275.398989,341.830873 C277.211781,341.830873 278.68174,343.300832 278.68174,345.113624" id="Fill-73" fill="#2D8CF0"></path>
                <path d="M288.29048,57.9423978 L263.294137,57.9423978 C258.175112,57.9423978 254.591794,52.8820767 256.294222,48.0542251 L262.359563,30.8399755 L293.773472,35.6551469 L293.773472,52.4601093 C293.773472,55.4878485 291.319628,57.9423978 288.29048,57.9423978" id="Fill-74" fill="#000000"></path>
                <path d="M293.773472,35.6551469 C293.773472,44.5324295 286.57631,51.728887 277.700202,51.728887 C268.821745,51.728887 261.624583,44.5324295 261.624583,35.6551469 C261.624583,26.7778644 268.821745,19.5814068 277.700202,19.5814068 C286.57631,19.5814068 293.773472,26.7778644 293.773472,35.6551469" id="Fill-75" fill="#000000"></path>
                <polyline id="Fill-76" fill="#FFFFFF" points="344.047939 164.86757 341.169074 186.935736 352.236031 195.349253 358.158133 171.679631 344.047939 164.86757"></polyline>
                <path d="M341.99798,186.590554 L351.766396,194.017837 L357.251737,172.104651 L344.681946,166.034613 L341.99798,186.590554 Z M352.236031,196.1265 C352.066963,196.1265 351.90259,196.072492 351.764048,195.969172 L340.69709,187.555654 C340.476362,187.386586 340.361301,187.111849 340.396524,186.834764 L343.277737,164.766598 C343.310611,164.517691 343.460894,164.301659 343.679275,164.18425 C343.897655,164.064493 344.162999,164.057449 344.386076,164.167813 L358.498619,170.979874 C358.829712,171.13955 359.003477,171.510562 358.914246,171.867485 L352.989796,195.539456 C352.926395,195.793059 352.738541,195.99735 352.491983,196.084233 C352.409796,196.112411 352.322914,196.1265 352.236031,196.1265 L352.236031,196.1265 Z" id="Fill-77" fill="#000000"></path>
                <path d="M289.490398,150.26191 C289.490398,150.26191 340.342516,84.616043 359.374489,92.7151398 C378.406462,100.813767 370.704442,154.296077 358.968254,175.347483 L341.749074,170.86951 L341.749074,160.499961 L330.846488,179.790233 L289.490398,150.26191" id="Fill-78" fill="#000000"></path>
                <path d="M358.120562,179.294768 C364.662583,183.859624 380.468161,195.295245 387.37415,204.990867 C389.057792,207.355481 387.576093,210.664063 384.687835,210.955236 C374.346464,212.000175 353.391334,210.462119 338.64948,198.094272 C338.64948,198.094272 338.846727,193.357999 341.85709,184.925696 L349.7,188.154439 L349.105912,186.963914 C348.213604,185.176951 348.65741,183.009584 350.181377,181.715738 L352.724452,179.553068 C354.257812,178.249829 356.472142,178.144161 358.120562,179.294768" id="Fill-79" fill="#2D8CF0"></path>
                <path d="M375.64031,207.515157 C357.387931,207.515157 340.936604,197.042289 340.746402,196.917835 C340.384783,196.685366 340.283811,196.20399 340.516281,195.844719 C340.74875,195.483099 341.230126,195.379779 341.589397,195.612249 C341.80543,195.750791 363.293596,209.421877 384.03739,205.12941 C384.453018,205.042527 384.868645,205.312568 384.955527,205.735239 C385.04241,206.155563 384.77237,206.566494 384.352046,206.653377 C381.442655,207.25451 378.519175,207.515157 375.64031,207.515157" id="Fill-80" fill="#FFFFFF"></path>
                <path d="M361.934002,192.547878 C361.748496,192.547878 361.56299,192.482129 361.412706,192.348283 C361.093354,192.059457 361.067524,191.568688 361.35635,191.249336 L366.620963,185.402376 C366.909788,185.083024 367.400557,185.059542 367.719909,185.34602 C368.036913,185.632497 368.062743,186.125615 367.776266,186.444967 L362.511653,192.289579 C362.359022,192.460996 362.145338,192.547878 361.934002,192.547878" id="Fill-81" fill="#FFFFFF"></path>
                <path d="M366.93327,196.1265 C366.728979,196.1265 366.522339,196.046662 366.369708,195.884638 C366.073837,195.57233 366.087926,195.081561 366.400234,194.785691 L371.937235,189.539864 C372.247194,189.243993 372.740311,189.258082 373.033834,189.568042 C373.329704,189.880349 373.317963,190.373466 373.005655,190.666989 L367.468654,195.915164 C367.318371,196.056054 367.125821,196.1265 366.93327,196.1265" id="Fill-82" fill="#FFFFFF"></path>
                <path d="M382.997148,287.221672 C382.997148,287.773494 395.097303,314.174046 395.097303,314.174046 L381.34638,315.275341 L371.995939,292.723451 L382.997148,287.221672" id="Fill-83" fill="#FFFFFF"></path>
                <path d="M372.991566,293.094462 L381.848889,314.455827 L393.927911,313.488378 C385.925324,296.017943 383.391642,290.260213 382.590913,288.294789 L372.991566,293.094462 Z M381.34638,316.052587 C381.034072,316.052587 380.749943,315.864733 380.627838,315.573559 L371.277397,293.021669 C371.122418,292.643612 371.284442,292.2092 371.648409,292.02839 L382.649618,286.526612 C382.89148,286.406855 383.175609,286.418596 383.405731,286.561834 C383.593585,286.676895 383.722735,286.867097 383.762654,287.080782 C384.133666,288.25487 391.150018,303.691785 395.804104,313.849998 C395.909772,314.082467 395.898032,314.350159 395.768882,314.56854 C395.639732,314.78692 395.411959,314.930159 395.160704,314.948944 L381.40978,316.050239 C381.388647,316.052587 381.367513,316.052587 381.34638,316.052587 L381.34638,316.052587 Z" id="Fill-84" fill="#000000"></path>
                <path d="M382.447675,308.674616 C382.447675,308.674616 385.19739,302.073891 392.347588,305.373079 C392.347588,305.373079 405.473897,324.334607 410.35106,339.989902 C411.731788,344.416216 407.185718,348.405768 402.958999,346.499048 C393.068478,342.032816 377.563467,332.656546 368.696751,315.275341 C368.696751,315.275341 371.446466,308.125142 375.846949,304.823606 L382.447675,308.674616" id="Fill-85" fill="#2D8CF0"></path>
                <path d="M406.326285,342.502451 C402.62321,342.502451 389.050748,340.654436 371.366628,316.282709 C371.115373,315.935179 371.192863,315.446758 371.540393,315.195503 C371.885575,314.944248 372.373996,315.021738 372.625251,315.369268 C392.382811,342.601075 406.941507,340.926825 407.089442,340.908039 C407.514462,340.846987 407.906608,341.142857 407.96766,341.567877 C408.028713,341.990549 407.737539,342.382694 407.312519,342.446095 C407.230333,342.457836 406.894544,342.502451 406.326285,342.502451" id="Fill-86" fill="#FFFFFF"></path>
                <path d="M395.099651,327.603269 C394.831959,327.603269 394.571312,327.464727 394.425725,327.218168 C394.209692,326.847156 394.334146,326.370476 394.705158,326.154444 L401.305883,322.303434 C401.676895,322.087402 402.153575,322.211855 402.369607,322.582867 C402.585639,322.953879 402.461186,323.430559 402.090174,323.646591 L395.489449,327.497601 C395.367344,327.568047 395.231149,327.603269 395.099651,327.603269" id="Fill-87" fill="#FFFFFF"></path>
                <path d="M391.798115,322.653313 C391.52103,322.653313 391.253338,322.505377 391.112447,322.24473 C390.908156,321.866673 391.051395,321.39469 391.429451,321.190398 L398.579649,317.339388 C398.957706,317.137445 399.429689,317.278336 399.633981,317.656392 C399.835924,318.034449 399.695033,318.506432 399.316977,318.710724 L392.166779,322.559385 C392.04937,322.622786 391.922568,322.653313 391.798115,322.653313" id="Fill-88" fill="#FFFFFF"></path>
                <path d="M387.397631,292.173977 L368.696751,297.673407 C368.696751,297.673407 334.591831,225.617253 324.691917,215.165518 C314.792003,204.716131 295.539301,187.66367 275.187653,181.614767 C254.836004,175.563515 254.836004,160.161823 254.836004,160.161823 L299.240028,144.293783 C299.240028,144.293783 337.893367,171.163032 353.844532,194.813869 C369.795698,218.467054 387.397631,292.173977 387.397631,292.173977" id="Fill-89" fill="#000000"></path>
                <path d="M338.104703,177.247158 C337.90276,177.247158 337.698468,177.169668 337.548185,177.01234 C332.396285,171.707809 317.144877,158.89146 316.989897,158.76231 C316.661152,158.485225 316.618885,157.996804 316.89597,157.668059 C317.170707,157.339315 317.661475,157.294699 317.99022,157.571784 C318.1452,157.700934 333.457661,170.566595 338.663569,175.927483 C338.961788,176.237442 338.954743,176.728211 338.647132,177.028777 C338.496849,177.174364 338.299602,177.247158 338.104703,177.247158" id="Fill-90" fill="#FFFFFF"></path>
                <path d="M287.212666,63.3216013 C287.212666,63.3216013 303.696868,65.7064097 313.918482,77.6520549 C324.140095,89.5977002 339.682678,112.994934 340.077172,130.298884 C340.474013,147.603069 318.534997,141.149809 309.487472,128.598569 C300.439947,116.047329 287.212666,63.3216013 287.212666,63.3216013" id="Fill-91" fill="#2D8CF0"></path>
                <path d="M252.022888,66.5162959 C252.022888,66.5162959 276.009515,57.1332161 302.309095,68.3072504 L316.712812,140.283567 C279.719634,158.165873 270.096805,205.415887 254.150336,167.319066 C249.026615,155.075672 249.007829,140.747802 249.026615,138.271179 L252.022888,66.5162959" id="Fill-92" fill="#2D8CF0"></path>
                <path d="M337.74778,97.9804567 C337.74778,97.9804567 341.706806,127.019186 340.020815,132.220867 C338.332476,137.422548 335.972558,143.702043 329.587866,138.067358 C323.205521,132.432438 330.513047,104.394737 330.513047,104.394737 L337.74778,97.9804567" id="Fill-93" fill="#FFFFFF"></path>
                <path d="M331.205759,104.819287 C329.186327,112.666894 325.208516,133.165304 330.102116,137.484305 C331.938391,139.104782 333.492884,139.755227 334.732721,139.417559 C336.895392,138.825584 338.215067,135.268566 339.28114,131.980883 C340.511584,128.184351 338.536768,109.87679 337.170129,99.5309579 L331.205759,104.819287 Z M334.047053,141.064336 C332.54422,141.064336 330.905193,140.266895 329.073615,138.65041 C322.407141,132.766583 329.456368,105.36242 329.759283,104.198664 C329.799202,104.049555 329.881388,103.915239 329.996448,103.812858 L337.231181,97.3985785 C337.447214,97.2079065 337.74778,97.1520199 338.017821,97.2513478 C338.285513,97.3511453 338.478063,97.5908941 338.517982,97.8754932 C338.680006,99.068367 342.481705,127.151153 340.760491,132.460616 C339.513609,136.303172 338.053043,140.121073 335.141304,140.917575 C334.784381,141.015259 334.420414,141.064336 334.047053,141.064336 L334.047053,141.064336 Z" id="Fill-94" fill="#000000"></path>
                <polyline id="Fill-95" fill="#FFFFFF" points="321.968032 114.838018 320.465199 113.952756 337.905108 82.0739068 350.425587 81.8808866 351.92842 82.7659145 321.968032 114.838018"></polyline>
                <polyline id="Fill-96" fill="#000000" points="334.488511 114.644763 321.968032 114.838018 339.407941 82.9589346 351.92842 82.7659145 334.488511 114.644763"></polyline>
                <path d="M310.605204,120.075862 C310.243585,120.075862 309.921885,119.824137 309.844395,119.457352 L302.743508,85.5891275 C302.654277,85.1690386 302.924318,84.7569336 303.344641,84.6686422 C303.762617,84.5824641 304.178244,84.8496866 304.265127,85.2702451 L311.366013,119.138704 C311.455244,119.558793 311.185204,119.970898 310.76488,120.059189 C310.710872,120.070226 310.656864,120.075862 310.605204,120.075862" id="Fill-97" fill="#236FBF"></path>
                <path d="M284.751777,125.069494 C280.842063,124.896903 276.883036,124.139382 273.062553,122.536046 C252.44556,113.887946 264.698347,80.539608 264.698347,80.539608 L252.022888,66.5162959 C218.072947,93.3789693 230.586382,135.135189 260.100617,144.848188 C270.390327,148.234259 280.013156,147.597433 288.459548,145.02524 C280.97356,137.216378 282.596151,129.577994 284.751777,125.069494" id="Fill-98" fill="#2D8CF0"></path>
                <path d="M334.403976,104.226137 L333.436527,98.2173877 L322.951918,109.852134 L325.941147,104.17119 C325.941147,104.17119 323.405116,105.026396 321.385684,107.189067 C319.427304,109.286224 317.057994,115.672325 316.914755,116.057661 C312.739697,118.488259 299.061567,125.701624 284.751777,125.069494 C282.596151,129.577994 280.299634,136.484921 287.785622,144.293783 C307.836704,138.188289 321.942202,121.908144 321.942202,121.908144 C331.10244,117.316519 334.403976,104.226137 334.403976,104.226137" id="Fill-99" fill="#FFFFFF"></path>
                <path d="M285.23785,125.865761 C283.110401,130.49754 281.713236,136.580257 288.018091,143.407581 C307.371765,137.332378 321.214267,121.55897 321.352809,121.398824 C321.420907,121.321804 321.500745,121.258638 321.592324,121.213084 C329.817987,117.090389 333.211103,105.631521 333.610293,104.185749 L332.926973,99.944237 L323.529569,110.372725 C323.266574,110.663664 322.829813,110.71462 322.508112,110.490134 C322.186412,110.265648 322.080744,109.837341 322.263902,109.49028 L324.128354,105.943359 C323.435642,106.38059 322.658396,106.966225 321.953943,107.71999 C320.460502,109.317689 318.483337,114.047857 317.645038,116.326058 C317.581637,116.495831 317.464229,116.6386 317.306901,116.72971 C313.399535,119.004154 299.650959,126.32483 285.23785,125.865761 Z M287.783273,145.0715 C287.576634,145.0715 287.372342,144.987435 287.222059,144.831986 C279.663278,136.944929 281.555908,129.948067 284.049672,124.73394 C284.183518,124.452863 284.462951,124.27722 284.787,124.292717 C298.695251,124.910992 312.122126,117.917887 316.285444,115.524625 C316.809087,114.126755 318.936535,108.672645 320.817425,106.658379 C322.947222,104.378769 325.579528,103.471903 325.69224,103.434567 C325.992807,103.33383 326.326248,103.425174 326.532888,103.666802 C326.737179,103.908899 326.777098,104.251733 326.629163,104.533279 L326.530539,104.719724 L332.858876,97.6967969 C333.058471,97.4741898 333.36843,97.3863679 333.657256,97.4718416 C333.943734,97.5561411 334.157418,97.7982382 334.204381,98.0936388 L335.17183,104.102389 C335.188267,104.206882 335.183571,104.313724 335.157741,104.41634 C335.021547,104.962291 331.69418,117.781458 322.425926,122.534872 C321.087465,124.028548 307.14634,139.211155 288.011046,145.037686 C287.935905,145.060228 287.860763,145.0715 287.783273,145.0715 L287.783273,145.0715 Z" id="Fill-100" fill="#000000"></path>
                <path d="M277.441903,125.144636 C277.359716,125.144636 277.275182,125.131251 277.190648,125.102838 C261.161992,119.635578 259.971467,106.401958 260.725232,95.4831706 C260.755758,95.0548632 261.136163,94.7333977 261.554138,94.7611062 C261.983854,94.7906933 262.305555,95.1621748 262.277376,95.5904823 C261.199563,111.192239 265.811383,119.578048 277.693157,123.630766 C278.099392,123.769544 278.317772,124.211471 278.17923,124.618175 C278.068866,124.941284 277.765951,125.144636 277.441903,125.144636" id="Fill-101" fill="#236FBF"></path>
                <path d="M276.425142,147.869352 C276.411053,147.869352 276.394616,147.868883 276.378178,147.868178 C263.57357,147.106664 255.465315,145.116585 250.853496,141.605121 C250.51301,141.344943 250.447262,140.856992 250.707909,140.515332 C250.968557,140.173672 251.456978,140.108393 251.797463,140.367867 C256.08993,143.638172 264.160614,145.583637 276.472105,146.315329 C276.899474,146.340924 277.22587,146.709353 277.20004,147.137895 C277.176559,147.550939 276.833725,147.869352 276.425142,147.869352" id="Fill-102" fill="#236FBF"></path>
                <path d="M284.603842,53.1361494 C289.997604,52.0684334 292.244809,35.2860135 292.317603,35.0530744 C292.319951,35.0443861 292.319951,35.0364023 292.322299,35.0279489 L274.790811,33.8970669 C275.128948,34.8199004 275.462389,35.6600781 275.556317,36.2419563 C275.878017,38.215599 272.578828,35.7460214 271.151137,36.3851951 C270.20717,36.8071625 269.84555,38.0937286 270.768384,39.8506345 C271.346035,40.9521642 272.311136,42.0224633 273.172917,42.5353051 C273.306763,43.5757822 273.583848,44.6082756 273.971297,45.5992062 L273.92903,45.5778378 L269.206846,60.1412306 L259.607499,64.4146776 C282.842709,74.729514 290.199547,64.4536574 290.199547,64.4536574 L281.375099,61.1100884 L282.370726,53.197202 C283.105705,53.2960603 283.854773,53.2845542 284.603842,53.1361494" id="Fill-103" fill="#FFFFFF"></path>
                <path d="M261.547093,64.4022323 C278.775667,71.5594753 286.543436,66.7722472 288.821167,64.7631471 L281.100362,61.8375535 C280.762225,61.7100475 280.557933,61.3693271 280.602549,61.0131086 L281.600524,53.1002223 C281.626354,52.8942872 281.73437,52.7076072 281.896394,52.5812752 C282.060766,52.4544737 282.269754,52.3995264 282.474045,52.4265304 C283.15032,52.5174048 283.814854,52.4993239 284.453559,52.3732268 C287.153962,51.8385469 289.807402,45.4857893 291.413555,35.7486044 L275.932025,34.7499248 C276.115183,35.2639407 276.26077,35.7218351 276.32417,36.1170333 C276.446276,36.8715025 276.180932,37.2824335 275.936721,37.494239 C275.305062,38.0399553 274.410406,37.7579393 273.377208,37.4315427 C272.754942,37.2352351 271.815671,36.9395997 271.468141,37.0948141 C271.280286,37.1784092 271.148789,37.3279881 271.075995,37.5388544 C270.913971,38.0091942 271.052513,38.7197525 271.4564,39.4892501 C271.95891,40.4466018 272.827735,41.4243826 273.569759,41.8674836 C273.77405,41.9895888 273.912593,42.1990462 273.943119,42.4355076 C274.067572,43.3869888 274.318827,44.3558466 274.694536,45.3155465 C274.795507,45.5733763 274.750892,45.8619672 274.586519,46.0756513 L269.94887,60.3809794 C269.880773,60.5909065 269.725793,60.7620885 269.52385,60.8517889 L261.547093,64.4022323 Z M277.96085,69.8119621 C273.309111,69.8119621 267.196807,68.6345862 259.290496,65.1254708 C259.011062,65.0005477 258.830253,64.7222888 258.830253,64.4149124 C258.830253,64.1080057 259.011062,63.8292771 259.290496,63.7041193 L268.575187,59.5717977 L273.121257,45.5501293 C272.811298,44.7000893 272.588221,43.8427699 272.452027,42.9931996 C271.557371,42.3575481 270.650975,41.3043908 270.07802,40.2120189 C269.296077,38.7190481 269.390004,37.6576721 269.606036,37.0302393 C269.81972,36.415017 270.254133,35.9338755 270.831785,35.6753412 C271.721744,35.2777949 272.848869,35.6340133 273.844496,35.9484342 C274.119232,36.0353168 274.487896,36.1517863 274.757936,36.2100211 C274.664009,35.7988553 274.450325,35.2193253 274.2249,34.6099734 L274.060528,34.1640546 C273.971297,33.9170264 274.011216,33.6418201 274.168544,33.4311886 C274.325872,33.2210268 274.579475,33.1078447 274.840123,33.1212293 L292.373959,34.2518764 C292.608777,34.2671396 292.824809,34.3887752 292.961003,34.5822649 C293.094849,34.7759895 293.134768,35.0206695 293.069019,35.2472686 C293.069019,35.2587747 293.052582,35.3543455 293.0291,35.5001673 C291.998251,41.9637588 289.553799,52.9487649 284.754125,53.8990721 C284.197607,54.0087319 283.627,54.0540518 283.049349,54.0340923 L282.222791,60.6000643 L290.474284,63.726427 C290.699709,63.8121354 290.873474,63.9974066 290.943919,64.228702 C291.014365,64.4597626 290.972097,64.7100783 290.831207,64.906151 C290.622219,65.1992035 287.161006,69.8110228 277.96085,69.8119621 L277.96085,69.8119621 Z" id="Fill-104" fill="#000000"></path>
                <path d="M277.068542,48.9812853 C277.068542,48.9812853 278.158096,52.8578905 282.370726,53.197202 L277.068542,48.9812853" id="Fill-105" fill="#FFFFFF"></path>
                <path d="M282.373074,53.9749182 C282.35194,53.9749182 282.330807,53.9742137 282.309673,53.9723352 C277.608623,53.5935743 276.371134,49.3708479 276.319474,49.1912123 C276.204413,48.7776984 276.446276,48.3486865 276.859555,48.2324517 C277.270486,48.1169214 277.700202,48.3559658 277.817611,48.7680709 C277.85753,48.9052044 278.832023,52.1323038 282.434126,52.4223037 C282.861495,52.4565871 283.180847,52.8315909 283.145624,53.2598984 C283.11275,53.6666026 282.774612,53.9749182 282.373074,53.9749182" id="Fill-106" fill="#000000"></path>
                <path d="M187.931749,395.474973 C187.931749,395.474973 165.877673,347.133056 178.529649,284.464913 C178.529649,284.464913 212.709711,313.107974 200.386479,395.474973 L187.931749,395.474973" id="Fill-107" fill="#DEF1FF"></path>
                <path d="M188.441304,394.697726 L199.717249,394.697726 C205.892954,352.695887 199.679678,325.125943 193.358386,309.372024 C187.889482,295.747902 181.443737,288.433331 179.01807,285.998272 C172.868195,317.649348 175.723578,345.432976 179.238799,363.267379 C182.688271,380.763645 187.419847,392.319023 188.441304,394.697726 Z M200.386479,396.252219 L187.931749,396.252219 C187.626486,396.252219 187.35175,396.073758 187.224948,395.796673 C187.168592,395.674568 181.629243,383.400647 177.724225,363.621954 C174.122121,345.378968 171.205686,316.8087 177.766492,284.312281 C177.8205,284.042241 178.01305,283.821512 178.27135,283.732281 C178.529649,283.640702 178.818475,283.692362 179.027463,283.868476 C179.384386,284.166694 187.8026,291.356812 194.800167,308.792025 C201.227127,324.808939 207.548419,352.869652 201.156681,395.590033 C201.100325,395.970438 200.773929,396.252219 200.386479,396.252219 L200.386479,396.252219 Z" id="Fill-108" fill="#2D8CF0"></path>
                <path d="M193.325512,391.213032 C193.311423,391.213032 193.297334,391.210684 193.283244,391.210684 C192.853528,391.187202 192.524783,390.820886 192.548265,390.39117 C194.236604,359.503252 180.304871,293.550009 180.16398,292.887823 C180.07475,292.467499 180.342442,292.056568 180.762766,291.964989 C181.183089,291.875759 181.596368,292.145799 181.685599,292.566123 C181.82649,293.228309 195.80049,359.381147 194.102758,390.475704 C194.079276,390.891332 193.736443,391.213032 193.325512,391.213032" id="Fill-109" fill="#FFFFFF"></path>
                <path d="M210.119672,316.881494 C210.119672,316.881494 181.704384,368.219684 198.796764,390.433437 L207.940564,390.433437 C207.940564,390.433437 226.211728,350.303095 210.119672,316.881494" id="Fill-110" fill="#FFFFFF"></path>
                <path d="M199.184213,389.656191 L207.43101,389.656191 C209.325989,385.201699 223.804847,349.145444 210.075057,318.623841 C205.791983,326.851853 184.580901,369.954987 199.184213,389.656191 Z M207.940564,391.213032 L198.796764,391.213032 C198.554901,391.213032 198.327128,391.100319 198.181541,390.907769 C190.928023,381.482187 190.634501,366.066406 197.30802,345.090142 C202.241539,329.585131 209.368256,316.632587 209.438701,316.503437 C209.579592,316.249834 209.837891,316.090158 210.143154,316.104247 C210.43198,316.111292 210.694976,316.280361 210.819429,316.543356 C219.223554,333.995007 218.183312,353.250057 215.830439,366.329402 C213.285015,380.470123 208.694329,390.654166 208.647366,390.757486 C208.520564,391.03457 208.245827,391.213032 207.940564,391.213032 L207.940564,391.213032 Z" id="Fill-111" fill="#2D8CF0"></path>
                <path d="M203.065749,392.572626 C202.650122,392.572626 202.30494,392.243881 202.288503,391.823558 C201.466641,370.619521 209.271981,317.304166 209.34947,316.766433 C209.412871,316.343761 209.812061,316.045543 210.232385,316.111292 C210.657405,316.174693 210.950927,316.569186 210.889874,316.994206 C210.810036,317.529591 203.02583,370.704055 203.842996,391.764853 C203.859433,392.192222 203.525992,392.553841 203.096275,392.570278 C203.086883,392.572626 203.075142,392.572626 203.065749,392.572626" id="Fill-112" fill="#2D8CF0"></path>
                <path d="M155.869743,336.019135 C155.869743,336.019135 180.07475,344.277673 188.840494,393.171411 L179.318637,393.171411 C179.318637,393.171411 159.450713,366.320009 155.869743,336.019135" id="Fill-113" fill="#FFFFFF"></path>
                <path d="M179.717827,392.394165 L187.908268,392.394165 C180.330701,351.474835 161.712007,339.715165 156.81371,337.284802 C160.516785,364.749079 177.543415,389.346231 179.717827,392.394165 Z M188.840494,393.948658 L179.318637,393.948658 C179.072078,393.948658 178.839609,393.831249 178.694022,393.634002 C178.494427,393.363962 158.661725,366.266001 155.097427,336.110714 C155.065962,335.84537 155.172804,335.582374 155.380383,335.415654 C155.588901,335.246585 155.868804,335.197273 156.120528,335.284156 C156.374601,335.371038 162.451683,337.510227 169.653541,345.747632 C176.240177,353.282931 185.04584,367.602114 189.606,393.035217 C189.645919,393.260642 189.584866,393.493112 189.436931,393.669225 C189.288996,393.847686 189.070615,393.948658 188.840494,393.948658 L188.840494,393.948658 Z" id="Fill-114" fill="#2D8CF0"></path>
                <path d="M183.636934,392.572626 C183.261226,392.572626 182.932481,392.302586 182.86908,391.919833 C179.274021,370.187456 163.698564,348.276618 163.541237,348.058238 C163.29233,347.708359 163.372168,347.222287 163.722046,346.97338 C164.069576,346.722125 164.555649,346.801963 164.806904,347.151842 C164.964232,347.37257 180.746328,369.569886 184.404788,391.66623 C184.475233,392.09125 184.186407,392.49044 183.763736,392.560885 C183.721468,392.56793 183.676853,392.572626 183.636934,392.572626" id="Fill-115" fill="#2D8CF0"></path>
                <path d="M165.208442,389.289875 L224.927276,389.289875 L226.265736,417.538442 C226.594481,424.463216 221.066873,430.258516 214.135055,430.258516 L180.027786,430.258516 C171.823256,430.258516 165.175568,423.603783 165.182607,415.399253 L165.208442,389.289875" id="Fill-116" fill="#2D8CF0"></path>
                <path d="M308.451926,241.88777 C308.029254,241.88777 307.684072,241.549633 307.674679,241.126961 L307.615975,238.370201 C307.606582,237.940485 307.947068,237.58591 308.376784,237.576517 C308.381481,237.576517 308.386177,237.576517 308.393221,237.576517 C308.813545,237.576517 309.161075,237.912307 309.170468,238.337327 L309.229172,241.094086 C309.238565,241.521454 308.898079,241.878377 308.468363,241.88777 C308.463667,241.88777 308.456622,241.88777 308.451926,241.88777" id="Fill-117" fill="#2D8CF0"></path>
                <path d="M308.658565,251.536429 C308.238242,251.536429 307.890712,251.198291 307.881319,250.775619 L307.822614,248.01886 C307.813222,247.589143 308.153707,247.234569 308.583424,247.225176 C308.58812,247.225176 308.595165,247.225176 308.599861,247.225176 C309.022533,247.225176 309.367715,247.560965 309.377108,247.985985 L309.43816,250.742745 C309.445205,251.172461 309.104719,251.527036 308.675003,251.536429 C308.670306,251.536429 308.66561,251.536429 308.658565,251.536429" id="Fill-118" fill="#2D8CF0"></path>
                <path d="M302.412415,245.381857 C301.985047,245.381857 301.639865,245.039023 301.635157,244.609307 C301.63282,244.181939 301.978002,243.829712 302.407719,243.827364 L305.124559,243.806231 C305.126907,243.806231 305.126907,243.806231 305.129256,243.806231 C305.556624,243.806231 305.904154,244.149064 305.906502,244.576433 C305.911199,245.006149 305.566017,245.356027 305.1363,245.360724 L302.41946,245.381857 C302.417111,245.381857 302.414763,245.381857 302.412415,245.381857" id="Fill-119" fill="#2D8CF0"></path>
                <path d="M311.922531,245.306716 C311.495163,245.306716 311.147633,244.961534 311.145285,244.534165 C311.140588,244.106797 311.48577,243.754571 311.915487,243.752222 L314.632327,243.728741 C315.054999,243.724044 315.411922,244.071575 315.41663,244.501291 C315.418967,244.931007 315.073785,245.280886 314.644068,245.285582 L311.927228,245.306716 C311.924879,245.306716 311.924879,245.306716 311.922531,245.306716" id="Fill-120" fill="#2D8CF0"></path>
                <path d="M163.5882,52.7233399 C163.5882,54.8547801 161.859942,56.5828034 159.730146,56.5828034 C157.598001,56.5828034 155.869743,54.8547801 155.869743,52.7233399 C155.869743,50.591665 157.598001,48.8636417 159.730146,48.8636417 C161.859942,48.8636417 163.5882,50.591665 163.5882,52.7233399" id="Fill-125" fill="#FFFFFF"></path>
            </g>
        </g>
    </g>
</svg>