<?xml version="1.0" encoding="UTF-8"?>
<svg width="440px" height="439.459301px" viewBox="0 0 440 439.459301" version="1.1" xmlns="http://www.w3.org/2000/svg" xmlns:xlink="http://www.w3.org/1999/xlink">
    <title>编组</title>
    <defs>
        <polygon id="path-1" points="0 0 323.784091 0 323.784091 267.228414 0 267.228414"></polygon>
    </defs>
    <g id="11111" stroke="none" stroke-width="1" fill="none" fill-rule="evenodd">
        <g id="登陆页（前台）-2" transform="translate(-40.000000, -320.000000)">
            <g id="编组" transform="translate(40.000000, 320.000000)">
                <path d="M37.5547232,186.254869 C53.211018,122.443916 25.8053538,105.159495 42.0726764,70.1127402 C67.1031895,16.1863567 176.705904,-7.57909107 248.512117,2.11758069 C336.460229,13.9940573 422.061782,78.8372459 437.02992,176.913329 C453.024286,281.712639 385.86097,379.813951 292.670467,419.205658 C257.010521,434.279278 213.783971,441.141627 171.949594,439.110314 C166.263648,438.834234 160.090418,436.954537 154.478477,436.348075 C150.080663,435.873044 146.225638,436.735163 141.897985,436.055416 C129.396064,434.091381 117.231494,431.269792 105.665216,427.570708 C100.320706,425.861368 96.8241756,420.594948 91.7610309,418.509092 C86.01045,416.140188 78.7377059,416.896584 73.4210676,414.036311 C57.3260245,405.377401 43.3910835,394.454589 32.6624164,381.187862 C27.0894011,374.296199 -2.71135746,336.346161 0.199614346,286.605426 C2.60552113,245.492124 25.1443481,236.837059 37.5547232,186.254869" id="Fill-1" fill="#DEF1FF"></path>
                <g transform="translate(116.215909, 51.229171)">
                    <mask id="mask-2" fill="white">
                        <use xlink:href="#path-1"></use>
                    </mask>
                    <g id="Clip-4"></g>
                    <path d="M217.949974,267.228414 C221.10627,267.228414 223.936028,265.335982 225.066537,262.469221 L323.271409,14.2821432 C324.247179,11.8077571 323.768545,9.24014296 322.35739,7.31695531 C320.999097,5.46609143 317.073189,0 317.073189,0 L108.992407,4.21183862 C105.836111,4.21183862 103.006353,6.10427064 101.876084,8.97127152 L0,258.365508 C0,258.365508 3.2269378,262.464175 4.81013163,264.414755 C6.18188054,266.104632 8.30570058,267.228414 10.7875353,267.228414 L217.949974,267.228414 Z" id="Fill-3" fill="#248BF7" mask="url(#mask-2)"></path>
                </g>
                <path d="M329.127367,311.064053 C332.283663,311.064053 335.113421,309.171621 336.24393,306.30486 L433.829845,58.816752 C435.744383,53.9612077 432.059234,48.7466877 426.713282,48.7466877 L219.550843,48.7466877 C216.394547,48.7466877 213.564549,50.6391197 212.43428,53.5058803 L114.848365,300.993748 C112.933828,305.849533 116.618736,311.064053 121.964928,311.064053 L329.127367,311.064053 Z" id="Fill-5" fill="#FFFFFF"></path>
                <path d="M219.550819,49.5428018 C216.741005,49.5428018 214.178436,51.2528626 213.175034,53.7978906 L115.589119,301.285999 C114.793798,303.302414 115.041044,305.492071 116.266704,307.292957 C117.534413,309.155834 119.66472,310.267843 121.965145,310.267843 L329.127343,310.267843 C331.937398,310.267843 334.499726,308.557782 335.503128,306.012754 L433.088803,58.5246456 C433.884124,56.50823 433.637118,54.3183334 432.411458,52.5174474 C431.143509,50.6548099 429.013682,49.5428018 426.713258,49.5428018 L219.550819,49.5428018 Z M121.965145,311.860167 C119.137309,311.860167 116.514671,310.487937 114.950219,308.188955 C113.42301,305.945476 113.116175,303.216395 114.107563,300.701642 L211.693478,53.213774 C212.934996,50.0656475 216.092734,47.9502372 219.550819,47.9502372 L426.713258,47.9502372 C429.541093,47.9502372 432.163251,49.3227069 433.727703,51.6214496 C435.254912,53.8651685 435.561987,56.5942496 434.570359,59.1090025 L336.984684,306.59687 C335.743406,309.744997 332.585909,311.860167 329.127343,311.860167 L121.965145,311.860167 Z" id="Fill-7" fill="#487CA5"></path>
                <path d="M104.688509,295.636094 L311.850948,295.636094 C315.007244,295.636094 317.837001,293.743662 318.967511,290.876902 L416.553185,43.3887936 C418.467963,38.5332494 414.782815,33.318489 409.436862,33.318489 L202.274424,33.318489 C199.118128,33.318489 196.28813,35.2111614 195.157861,38.077922 L97.5719458,285.56579 C95.6574082,290.421574 99.3423164,295.636094 104.688509,295.636094" id="Fill-9" fill="#FFFFFF"></path>
                <path d="M202.274328,34.1148435 C199.464513,34.1148435 196.901945,35.8249043 195.898783,38.3699322 L98.312868,285.8578 C97.5177871,287.874456 97.7647932,290.064112 98.9904529,291.865239 C100.258161,293.727876 102.388469,294.839884 104.688413,294.839884 L311.850851,294.839884 C314.660906,294.839884 317.223234,293.129823 318.226877,290.584555 L415.812551,43.0966872 C416.607873,41.0802716 416.360867,38.8906153 415.135207,37.0897293 C413.867258,35.2268515 411.736951,34.1148435 409.436766,34.1148435 L202.274328,34.1148435 Z M104.688413,296.432209 C101.860818,296.432209 99.2384201,295.059979 97.673968,292.761236 C96.146759,290.517518 95.8396833,287.788436 96.8313119,285.273684 L194.416986,37.7858156 C195.658505,34.6376891 198.816002,32.5222788 202.274328,32.5222788 L409.436766,32.5222788 C412.264602,32.5222788 414.886999,33.8947485 416.451451,36.1934912 C417.97866,38.4372101 418.285496,41.1662912 417.294108,43.6810441 L319.708433,291.168912 C318.466915,294.317279 315.309177,296.432209 311.850851,296.432209 L104.688413,296.432209 Z" id="Fill-11" fill="#248BF7"></path>
                <path d="M121.693606,280.843864 L304.223913,280.843864 C307.004894,280.843864 309.498262,279.176333 310.494216,276.650527 L396.476851,58.5895448 C398.163845,54.3111491 394.916964,49.7165471 390.206548,49.7165471 L207.676241,49.7165471 C204.89526,49.7165471 202.401891,51.3840786 201.405938,53.9098843 L115.423303,271.970867 C113.736309,276.249262 116.98319,280.843864 121.693606,280.843864" id="Fill-13" fill="#A1D5FF"></path>
                <path d="M286.920775,194.698153 L205.039451,194.698153 C196.565795,194.698153 190.747937,186.171156 193.838396,178.281137 C195.644088,173.671638 200.088996,170.638845 205.039451,170.638845 L286.920775,170.638845 C295.39443,170.638845 301.212289,179.165842 298.121829,187.055861 C296.316378,191.66536 291.871229,194.698153 286.920775,194.698153" id="Fill-15" fill="#FFFFFF"></path>
                <path d="M242.492953,124.475565 L301.699453,124.475565 C303.187737,124.475565 304.394174,123.268888 304.394174,121.780604 C304.394174,120.29232 303.187737,119.085642 301.699453,119.085642 L242.492953,119.085642 C241.00467,119.085642 239.797992,120.29232 239.797992,121.780604 C239.797992,123.268888 241.00467,124.475565 242.492953,124.475565" id="Fill-17" fill="#FFFFFF"></path>
                <path d="M217.173482,138.153457 L307.211774,138.153457 C308.700058,138.153457 309.906736,136.946779 309.906736,135.458495 C309.906736,133.969971 308.700058,132.763533 307.211774,132.763533 L217.173482,132.763533 C215.685198,132.763533 214.47852,133.969971 214.47852,135.458495 C214.47852,136.946779 215.685198,138.153457 217.173482,138.153457" id="Fill-19" fill="#FFFFFF"></path>
                <path d="M224.366525,152.177204 L283.573025,152.177204 C285.061309,152.177204 286.267746,150.970527 286.267746,149.482243 C286.267746,147.993959 285.061309,146.787281 283.573025,146.787281 L224.366525,146.787281 C222.878241,146.787281 221.671564,147.993959 221.671564,149.482243 C221.671564,150.970527 222.878241,152.177204 224.366525,152.177204" id="Fill-21" fill="#FFFFFF"></path>
                <path d="M304.305271,281.28391 L284.042601,281.28391 C283.602651,281.28391 283.246318,280.927337 283.246318,280.487628 C283.246318,280.047918 283.602651,279.691345 284.042601,279.691345 L304.305271,279.691345 C306.742414,279.691345 308.964748,278.208828 309.834796,276.002112 L331.163341,221.910657 C331.324808,221.501463 331.787584,221.301071 332.196298,221.461818 C332.605251,221.623285 332.806124,222.08558 332.644897,222.494774 L311.316352,276.586469 C310.208429,279.396043 307.390925,281.28391 304.305271,281.28391" id="Fill-23" fill="#248BF7"></path>
                <path d="M184.60611,97.627611 C184.508317,97.627611 184.408842,97.6093499 184.31249,97.5711456 C183.903777,97.4087175 183.704106,96.9459414 183.866293,96.537228 L198.083321,60.7451296 C198.245509,60.3364162 198.707805,60.1365047 199.117239,60.2989328 C199.526193,60.4613609 199.725624,60.924137 199.563436,61.3330907 L185.346408,97.1249488 C185.222424,97.4373106 184.922797,97.627611 184.60611,97.627611" id="Fill-25" fill="#248BF7"></path>
                <path d="M376.804496,109.127115 C376.707424,109.127115 376.608669,109.109094 376.512558,109.07137 C376.103604,108.910144 375.902731,108.447608 376.063958,108.038414 L395.817479,57.941346 C396.506357,56.1938018 396.292509,54.2968045 395.230239,52.7361968 C394.130725,51.1210459 392.283225,50.1565688 390.287954,50.1565688 L225.044951,50.1565688 C224.605242,50.1565688 224.248669,49.800236 224.248669,49.3605267 C224.248669,48.9208174 224.605242,48.5642444 225.044951,48.5642444 L390.287954,48.5642444 C392.810636,48.5642444 395.150466,49.788943 396.546724,51.8401989 C397.910063,53.8433993 398.184461,56.2800617 397.299035,58.5254626 L377.545514,108.622771 C377.422011,108.935853 377.122144,109.127115 376.804496,109.127115" id="Fill-27" fill="#248BF7"></path>
                <polygon id="Fill-29" fill="#248BF7" points="265.611572 172.552373 264.485628 171.426429 271.124037 164.787779 272.249981 165.913724"></polygon>
                <polygon id="Fill-31" fill="#248BF7" points="271.124109 200.490086 264.4857 193.851436 265.611644 192.725492 272.250053 199.364142"></polygon>
                <polygon id="Fill-33" fill="#248BF7" points="243.186445 172.552373 236.547795 165.913724 237.673739 164.787779 244.312389 171.426429"></polygon>
                <path d="M256.653588,189.17055 L255.98225,187.726478 C258.17527,186.706736 259.592192,184.485604 259.592192,182.068163 C259.592192,178.6293 256.794631,175.831499 253.355528,175.831499 C251.280484,175.831499 249.346964,176.85965 248.183777,178.581725 L246.863928,177.690293 C248.323859,175.529229 250.75067,174.239175 253.355528,174.239175 C257.672848,174.239175 261.184756,177.751083 261.184756,182.068163 C261.184756,185.102638 259.406216,187.890347 256.653588,189.17055" id="Fill-35" fill="#248BF7"></path>
                <path d="M262.133231,75.1488296 C270.381745,63.1219387 284.909693,57.7416266 294.582577,63.1320304 C304.255462,68.5221939 305.409759,82.6414284 297.161244,94.6683192 C296.645847,95.4199098 296.105702,96.1457906 295.543931,96.84452 C287.115929,107.3257 279.075015,103.76862 270.006671,98.7153269 C265.077601,95.9687055 257.065761,98.9250899 256.677712,93.0769559 C256.304319,87.4486766 258.087905,81.0471817 262.133231,75.1488296" id="Fill-37" fill="#FFFFFF"></path>
                <path d="M256.683454,93.0764994 C257.071744,98.9239125 259.783285,103.938761 264.712354,106.685383 C273.779737,111.738195 287.113982,107.326205 295.542225,96.8467065 C282.164489,84.6739667 263.936255,90.1431817 256.683454,93.0764994" id="Fill-39" fill="#248BF7"></path>
                <path d="M287.771192,82.4773663 L291.918395,77.0482777 C293.487173,74.9941384 293.713755,72.4020159 292.474399,70.688351 C292.115664,70.191936 290.271047,69.9579049 288.820007,69.7856253 C287.791375,69.6635639 286.94103,69.1157294 286.451823,68.2612997 L285.793941,67.1127693 C284.940953,66.3234551 283.695591,66.0072488 282.40001,66.3433982 C281.955736,66.4587318 281.512903,66.6293294 281.082084,66.8537493 L280.656791,67.0755262 C278.641096,68.1257827 277.200868,70.1866498 276.997593,72.311431 L276.378395,79.6002738 L287.771192,82.4773663 Z" id="Fill-41" fill="#000000"></path>
                <path d="M286.145805,72.7575798 L278.917753,72.5252307 L274.975506,82.5640587 C274.172256,84.4105976 274.524984,86.1295487 275.511327,87.0243451 L274.164567,90.1191299 C273.253672,92.2124346 274.074463,94.3148698 275.998371,94.8151293 C277.922039,95.3153887 280.219821,94.0243733 281.130956,91.9310686 L283.086101,87.4373836 C285.155378,86.4995773 286.939204,84.5996966 287.920741,82.3442041 L289.524599,78.658575 C290.978042,75.3182258 290.139471,73.381102 286.145805,72.7575798" id="Fill-43" fill="#FFFFFF"></path>
                <path d="M276.872744,95.7215072 C276.510885,95.7215072 276.150708,95.6775362 275.797979,95.5857499 C274.72802,95.3075076 273.876954,94.6159866 273.401203,93.6385344 C272.852167,92.5104277 272.864421,91.1117676 273.434601,89.8012897 L274.740995,86.7987719 C274.916158,86.3955848 275.384941,86.2110511 275.788848,86.3864543 C276.191795,86.5618574 276.376569,87.0308807 276.201166,87.4340677 L274.894773,90.4365856 C274.510568,91.3198487 274.487982,92.232666 274.833262,92.9417273 C275.105497,93.5015758 275.577884,93.8831378 276.198523,94.0446048 C277.730778,94.4425057 279.653965,93.3292962 280.40051,91.6134688 L282.355895,87.1197837 C282.531298,86.7165967 283.000322,86.5318226 283.403989,86.7074661 C283.806936,86.8828693 283.99171,87.3518925 283.816307,87.7553198 L281.860922,92.2487646 C280.947384,94.3480763 278.893004,95.7215072 276.872744,95.7215072" id="Fill-45" fill="#000000"></path>
                <path d="M279.477938,73.5143604 L276.100585,81.5845882 C275.452795,83.0728721 275.089494,85.0376279 275.727193,86.0955733 C276.008319,86.5619535 276.482868,86.8142458 277.178234,86.8668667 C277.196735,86.8680681 277.215237,86.8702306 277.233257,86.8728737 L279.672323,87.2284856 C282.880038,87.1967689 285.826811,85.1604101 287.190391,82.02646 L288.794249,78.3408309 C289.445884,76.8434165 289.464145,75.4968968 288.844467,74.6463115 C288.291827,73.8879932 287.257909,73.5614549 285.8518,73.7010566 C285.817681,73.7044205 285.783561,73.7056219 285.748961,73.7046608 L279.477938,73.5143604 Z M279.616818,88.8215308 C279.578374,88.8215308 279.539929,88.8186475 279.501965,88.8131211 L277.029501,88.4524633 C275.516949,88.3292006 274.744935,87.5509391 274.363373,86.9175655 C273.369822,85.2694965 273.852542,82.7590686 274.635849,80.959384 L278.220321,72.3944231 C278.347668,72.0899905 278.660991,71.8951248 278.978879,71.9059373 L285.746799,72.1113753 C287.693053,71.9309263 289.247894,72.4963011 290.131398,73.7085053 C291.092751,75.0273929 291.137443,76.9472167 290.25466,78.9761268 L288.650803,82.6617559 C287.026761,86.3942393 283.481215,88.81216 279.618741,88.8215308 L279.616818,88.8215308 Z" id="Fill-47" fill="#000000"></path>
                <path d="M143.055574,286.087122 C144.397288,275.207079 143.626235,276.87389 143.626235,276.87389 L98.0089159,279.560682 C98.0089159,279.560682 93.8521011,307.827744 93.5935616,309.758861 C93.3751486,311.387948 82.2372875,368.791399 73.4267622,414.026195 C83.4247429,419.405065 94.2538464,423.910524 105.668268,427.561313 C114.103719,408.625219 123.164374,385.733423 129.522138,362.73999 C134.528097,383.056482 139.449717,411.890121 141.897913,436.056112 C151.748603,437.603745 161.807374,438.617239 171.949282,439.109569 C178.262354,397.792992 184.428377,331.490593 168.751658,287.17318 L143.055574,286.087122 Z" id="Fill-49" fill="#000000"></path>
                <path d="M130.438848,370.845683 C130.057526,370.845683 129.720896,370.571044 129.65482,370.182514 C127.923614,359.981018 123.368658,346.884408 119.965116,340.116729 C115.920992,332.076055 115.477678,323.848205 115.184539,318.403258 C115.160991,317.964269 115.497862,317.589195 115.93709,317.565407 C116.370072,317.544263 116.751153,317.87873 116.774941,318.317959 C117.060872,323.630032 117.493133,331.657971 121.387564,339.40118 C124.844208,346.273861 129.468604,359.567018 131.225039,369.916046 C131.298564,370.349748 131.006626,370.760864 130.573163,370.834389 C130.527991,370.841838 130.483299,370.845683 130.438848,370.845683" id="Fill-51" fill="#CADDFF"></path>
                <path d="M178.005737,146.871283 L177.824567,146.302784 C177.175816,144.268588 176.938901,142.133715 177.036454,140.000764 C177.126078,138.03745 177.446129,134.458505 176.755089,133.335444 C174.808354,130.171459 167.255205,116.830726 153.892126,122.749742 C143.472937,127.364768 144.241347,143.613109 144.786299,149.127736 C144.912445,150.404095 144.725989,151.690785 144.248316,152.880163 C144.223327,152.942635 144.195454,153.003906 144.1659,153.064456 L137.956147,165.787914 C137.06063,167.640219 137.431139,169.855826 138.879777,171.316478 L139.679183,172.122131 C141.435618,174.182037 145.327405,175.205863 147.988488,175.442056 C149.928735,175.614336 151.404765,175.443498 152.844032,174.690225 C154.210735,173.975398 154.763135,173.065223 155.168965,171.556996 C155.168965,171.556996 158.393981,160.867254 159.687399,161.693571 C164.040761,164.474793 166.364733,164.046377 169.070988,160.874222 C170.768074,158.885198 173.025969,155.753891 174.65842,151.053086 C174.828537,150.563159 175.167089,150.14964 175.605837,149.87332 L177.482892,148.69115 C178.008861,148.245674 178.21526,147.527723 178.005737,146.871283" id="Fill-53" fill="#FFFFFF"></path>
                <path d="M160.494157,122.047144 C158.577697,122.047144 156.486315,122.471716 154.214724,123.477762 C144.562263,127.753034 144.959684,142.784845 145.57864,149.049381 C145.71656,150.442996 145.512083,151.870489 144.987316,153.176882 C144.954638,153.258096 144.919077,153.336667 144.880872,153.414277 L138.6716,166.137254 C137.926016,167.679601 138.236456,169.536952 139.445056,170.755884 L140.244462,171.561297 C140.258398,171.575474 140.271854,171.590131 140.285069,171.605508 C141.784886,173.364346 145.270123,174.401387 148.059034,174.649114 C149.968766,174.81827 151.248968,174.626287 152.474868,173.984744 C153.54651,173.424415 154.014332,172.784074 154.400219,171.349852 C155.503817,167.690173 157.577659,161.502766 159.138747,160.924657 C159.474897,160.800193 159.821859,160.834793 160.116199,161.02269 C164.399401,163.75898 166.220951,162.988407 168.46539,160.35736 C170.870576,157.538414 172.650078,154.40927 173.906493,150.79188 C174.132355,150.140485 174.585519,149.57511 175.18165,149.199555 L177.00368,148.051746 C177.258856,147.812429 177.354487,147.449368 177.247082,147.113459 L177.065672,146.544961 C176.412596,144.496107 176.135074,142.281943 176.241037,139.964458 C176.253532,139.690781 176.270351,139.386589 176.288612,139.061733 C176.377035,137.470369 176.541866,134.508459 176.076927,133.752543 L175.866203,133.407503 C173.978096,130.308394 168.944986,122.047144 160.494157,122.047144 M149.263068,176.299105 C148.839938,176.299105 148.393741,176.27748 147.91799,176.235191 C145.044742,175.980015 141.015996,174.891314 139.093529,172.662493 L138.314546,171.877263 C136.630916,170.179697 136.198896,167.593581 137.239061,165.441408 L143.450015,152.715067 C143.47164,152.671096 143.491823,152.627126 143.510084,152.582434 C143.939222,151.513676 144.106696,150.345923 143.994005,149.206043 C143.340929,142.596947 142.967055,126.717915 153.569817,122.021675 C162.571123,118.034737 170.529862,121.586771 177.226178,132.579264 L177.433298,132.918056 C178.106077,134.011803 178.037838,136.2882 177.878534,139.150155 C177.860993,139.469245 177.843934,139.768391 177.83192,140.037022 C177.734607,142.165648 177.98738,144.192396 178.58303,146.06104 L178.76444,146.629058 C179.072717,147.595457 178.771648,148.643311 177.997472,149.29879 C177.968878,149.322818 177.938844,149.344924 177.907367,149.364867 L176.030073,150.547036 C175.738615,150.730609 175.51876,151.003084 175.410635,151.314005 C174.088384,155.122416 172.212771,158.418554 169.676874,161.391037 C166.676518,164.90727 163.912597,165.240776 159.568125,162.55903 C158.738203,163.553782 157.089414,167.949193 155.931272,171.786919 C155.523039,173.305237 154.900959,174.512876 153.213244,175.395899 C152.03588,176.011732 150.806856,176.299105 149.263068,176.299105" id="Fill-55" fill="#000000"></path>
                <path d="M169.927508,115.018427 C173.33057,116.770777 174.861383,119.965277 176.730508,120.466017 C183.514045,122.283722 186.731132,125.810287 184.368475,131.561349 C180.435359,141.136199 168.526926,136.821041 166.041727,136.844108 C163.717034,136.865733 159.873542,138.264633 157.611803,142.922188 C157.320105,143.522884 156.657657,143.85639 156.005542,143.754272 C155.240256,143.634613 154.694824,142.953665 154.757056,142.177325 C154.953363,139.730091 155.051877,134.771467 152.727185,134.077784 C149.806842,133.206054 145.209837,139.994637 149.387316,144.599091 C150.669441,146.012167 150.644212,148.426003 149.251799,149.784056 C148.343067,150.670443 146.409307,151.071227 144.739853,150.239384 C143.722034,149.731916 143.155458,148.710973 142.790715,147.633806 C141.284651,143.185533 139.331188,127.920892 144.384001,119.757677 C150.47001,109.925248 165.399223,112.686526 169.927508,115.018427" id="Fill-57" fill="#000000"></path>
                <path d="M159.641121,162.461357 C159.494071,162.461357 159.345339,162.42075 159.212224,162.335451 C156.071787,160.322399 154.113038,157.28432 153.022895,155.090098 C152.827309,154.696042 152.987815,154.218369 153.381631,154.022782 C153.774005,153.826715 154.25264,153.987221 154.448947,154.381277 C155.449706,156.395771 157.237617,159.178194 160.0717,160.994698 C160.441729,161.231853 160.549614,161.724423 160.312219,162.094692 C160.160363,162.331847 159.903505,162.461357 159.641121,162.461357" id="Fill-59" fill="#000000"></path>
                <path d="M74.6197921,344.204512 L7.09101273,324.678535 C6.21639966,324.425522 5.71229575,323.511503 5.96530881,322.636649 L17.9739385,281.105984 C18.2269516,280.231131 19.1409703,279.727267 20.0155834,279.98004 L87.5443627,299.506257 C88.4192161,299.75903 88.9230797,300.673289 88.6703069,301.547902 L76.6614369,343.078568 C76.4086641,343.953421 75.4944051,344.457525 74.6197921,344.204512" id="Fill-61" fill="#FFFFFF"></path>
                <path d="M20.9203274,281.186573 C19.6852968,281.186573 18.5451762,281.997753 18.184999,283.242395 L7.28381205,320.942783 C7.07260741,321.672989 7.15838677,322.44188 7.52577232,323.107691 C7.89267731,323.773262 8.49721755,324.256221 9.22742336,324.467426 L72.925926,342.88596 C74.4329516,343.321345 76.0142232,342.449855 76.4503284,340.942349 L87.3515154,303.24196 C87.56272,302.511514 87.4769406,301.742864 87.1097954,301.077293 C86.7426501,300.411482 86.1383501,299.928522 85.4081443,299.717318 L21.7098819,281.298783 C21.4467772,281.222855 21.1812696,281.186573 20.9203274,281.186573 M72.4838139,344.415572 L8.78507098,325.997038 C7.64591147,325.667857 6.70353992,324.914824 6.13095669,323.876582 C5.55861373,322.838339 5.42477871,321.63935 5.75420028,320.500431 L16.6553872,282.799802 C17.3351346,280.448919 19.8013513,279.088463 22.151994,279.768931 L85.8502564,298.187466 C86.9894159,298.516887 87.9320278,299.26992 88.5043707,300.308162 C89.0767137,301.346405 89.210789,302.545394 88.8813674,303.684313 L77.9801804,341.384942 C77.4191306,343.32543 75.6403502,344.590735 73.7147598,344.590735 C73.307488,344.590735 72.893969,344.53427 72.4838139,344.415572 Z" id="Fill-63" fill="#248BF7"></path>
                <path d="M16.9768796,285.597579 L17.376943,286.319615 C20.834548,292.560124 26.6235735,297.176351 33.4770319,299.158166 L66.3961225,308.676792 C73.2692838,310.664134 80.6501531,309.839258 86.9149297,306.383575 L16.9768796,285.597579 Z" id="Fill-65" fill="#FFFFFF"></path>
                <path d="M73.9279587,310.547214 C71.3377584,310.547214 68.7324207,310.18103 66.1751385,309.441694 L33.2558077,299.923068 C26.1512584,297.868688 20.2649202,293.174852 16.6804483,286.705838 L16.2803849,285.983081 C16.0674983,285.598636 16.2066194,285.113995 16.591305,284.900868 C16.9755101,284.687741 17.460632,284.827102 17.6735186,285.211788 L18.0733417,285.934064 C21.4521354,292.032088 27.0013631,296.456813 33.6979198,298.393216 L66.6174909,307.911842 C73.3354324,309.854251 80.4075441,309.063736 86.5300759,305.686384 C86.9162031,305.473978 87.3994028,305.61382 87.6120491,305.998986 C87.8244552,306.383912 87.6843729,306.868313 87.299447,307.080719 C83.1344627,309.37802 78.5559594,310.547214 73.9279587,310.547214" id="Fill-67" fill="#248BF7"></path>
                <polygon id="Fill-69" fill="#248BF7" points="50.5039945 312.208739 45.2207548 310.681049 48.7852837 298.35381 54.068283 299.8815"></polygon>
                <path d="M235.649467,203.319795 C235.649467,203.319795 234.066994,191.479361 239.763992,187.364835 C244.079631,184.247704 250.359786,182.308418 252.796448,181.585661 C253.503587,181.375898 254.820312,181.526312 255.124264,182.19837 C255.124264,182.19837 255.671378,183.475209 253.845984,184.336847 L248.577401,186.536355 C248.082428,186.768704 248.008182,187.440282 248.440683,187.77499 C249.768461,188.80218 252.181816,191.656686 252.570106,193.209845 C253.219098,195.805572 251.832451,198.108399 249.357345,200.230057 C246.881997,202.351954 246.233726,202.755382 246.11575,203.319795 C245.998013,203.884209 245.939145,206.123603 245.939145,206.123603 L235.649467,203.319795 Z" id="Fill-71" fill="#FFFFFF"></path>
                <path d="M236.383373,202.694519 L245.17828,205.091055 C245.208795,204.382955 245.259974,203.522518 245.336383,203.156815 C245.483433,202.454001 245.965912,202.048651 247.399172,200.845097 C247.791547,200.515435 248.266096,200.116573 248.83916,199.625444 C251.340698,197.481441 252.308539,195.446043 251.797707,193.402957 C251.486307,192.157834 249.298813,189.445332 247.953494,188.404927 C247.529403,188.076707 247.31123,187.562992 247.369858,187.030295 C247.428246,186.497598 247.753343,186.043472 248.239185,185.815448 L253.539485,183.602004 C254.624101,183.08925 254.394635,182.517868 254.392473,182.512102 C254.281945,182.36361 253.508969,182.205747 253.022886,182.348953 C247.445786,184.002788 243.141921,185.907475 240.230228,188.01039 C235.636107,191.328153 236.170726,200.420045 236.383373,202.694519 M245.939001,206.919813 C245.86908,206.919813 245.798678,206.910683 245.729719,206.891941 L235.44028,204.088133 C235.131282,204.003796 234.902778,203.742613 234.860248,203.425206 C234.793211,202.922543 233.283782,191.062886 239.297708,186.719375 C242.35525,184.511217 246.820582,182.527239 252.570202,180.822465 C253.580332,180.522357 255.330519,180.722989 255.84952,181.870318 C256.149868,182.570489 256.179182,184.115959 254.185833,185.056889 L249.017207,187.21555 C250.334653,188.275898 252.880882,191.17005 253.342457,193.016829 C254.014034,195.70218 252.879921,198.259462 249.875481,200.834765 C249.297611,201.329738 248.818977,201.731964 248.423239,202.064509 C247.588512,202.765401 246.929428,203.319243 246.895309,203.482632 C246.823946,203.823347 246.75859,205.244353 246.735043,206.144435 C246.728556,206.388798 246.610339,206.616822 246.414272,206.762671 C246.27515,206.865751 246.108397,206.919813 245.939001,206.919813" id="Fill-73" fill="#000000"></path>
                <path d="M44.5372832,275.901748 L41.4206331,280.706113 C40.4583184,282.189591 39.9604618,283.926323 39.9909771,285.694291 L53.2478527,289.352288 C53.2478527,289.352288 54.6626114,296.522673 57.5574846,296.854257 C61.3214444,297.285317 58.8227902,292.987699 58.714665,291.804809 C58.6065397,290.621918 58.7242761,286.559773 58.0392426,282.892886 C57.3542091,279.225998 54.3995067,275.082879 54.3995067,275.082879 L44.5372832,275.901748 Z" id="Fill-75" fill="#FFFFFF"></path>
                <path d="M40.7983844,285.091048 L53.4598503,288.584695 C53.7503468,288.664948 53.9704417,288.902343 54.0290696,289.197885 C54.571618,291.93874 56.0531741,295.880506 57.6479013,296.063117 C58.1962165,296.12607 58.5970007,296.068403 58.7243482,295.91006 C59.0641017,295.488612 58.5426978,293.959961 58.2920875,293.22543 C58.103469,292.671829 57.9542562,292.234763 57.9218186,291.877469 C57.8903422,291.534832 57.8773671,290.999252 57.8607879,290.321426 C57.8153753,288.466478 57.7471363,285.663151 57.2567282,283.039071 C56.7257132,280.19754 54.7153045,276.98646 54.0031195,275.914819 L44.9926827,276.662805 L42.0886789,281.139431 C41.316905,282.329289 40.875754,283.684699 40.7983844,285.091048 M58.04388,297.67995 C57.8612685,297.67995 57.6690458,297.668416 57.4669718,297.645109 C54.4721428,297.302232 52.9783325,291.784481 52.5703399,289.991284 L39.7791237,286.461836 C39.4388896,286.367887 39.2010141,286.061052 39.1947669,285.707842 C39.1616085,283.774323 39.7005527,281.894866 40.7527315,280.272747 L43.8693815,275.468382 C44.0032165,275.261743 44.2257143,275.128628 44.4712787,275.108205 L54.3337425,274.289336 C54.6153487,274.26651 54.884941,274.392175 55.0478497,274.62068 C55.1727944,274.795603 58.1130802,278.950736 58.8221415,282.746652 C59.3358565,285.496398 59.4089011,288.492668 59.4528721,290.282742 C59.4684901,290.930772 59.4809846,291.442805 59.5074152,291.732341 C59.5230333,291.900535 59.6698434,292.331355 59.7995937,292.711235 C60.2445891,294.016667 60.8541752,295.804578 59.9646649,296.908897 C59.5518667,297.421651 58.9072,297.67995 58.04388,297.67995" id="Fill-77" fill="#000000"></path>
                <path d="M247.406477,206.297036 C244.998888,201.403288 237.366688,202.167613 234.222165,203.054 C233.896588,203.145786 233.611858,203.349302 233.405459,203.617212 C229.09847,209.212093 225.260505,212.182173 222.03645,213.773536 C218.647325,215.446113 214.58542,214.935522 211.633601,212.575508 C199.568025,202.930016 179.221017,186.282573 179.221017,186.282573 C172.40336,182.454939 165.956693,179.438005 159.900237,177.084719 C155.112932,167.637216 151.231236,166.675862 142.374097,164.811303 C140.3745,164.390335 138.655549,164.206522 137.203067,164.166876 C133.832202,164.07509 130.61848,165.589084 128.485529,168.200909 L127.25122,169.712259 C109.400463,168.844614 98.0117512,176.304295 96.2115861,177.571763 C75.8261334,191.923827 83.2891779,196.909843 63.7581549,217.589636 C44.2271319,238.26967 43.0781191,274.459429 43.0781191,274.459429 C43.0735557,280.312129 51.2889116,279.348132 55.5512087,278.454297 C56.9931189,278.152026 58.0601949,276.943186 58.188023,275.475326 C58.4532902,272.433402 104.770059,190.089783 97.7104422,254.587451 C96.8764362,262.206196 98.0333763,275.25451 95.5508207,282.026514 C92.9046356,289.245196 95.9660216,297.405047 102.826929,300.874907 C113.701204,306.374156 130.619201,305.267915 136.67902,304.75444 C145.902584,303.972575 155.907533,303.19119 163.724267,299.908027 C167.076149,298.500236 170.78028,295.594791 172.989639,293.707645 C174.216981,292.65931 174.800617,291.045841 174.538473,289.453037 C173.591296,283.701735 171.47084,268.931106 172.151068,255.494262 C172.671751,245.215636 174.966168,235.554766 175.903014,231.964527 C176.092113,231.239367 176.925638,230.902016 177.562135,231.297514 C183.02222,234.689043 205.133351,247.299329 221.891563,240.384119 C245.339122,230.708592 248.192427,207.894406 247.406477,206.297036" id="Fill-79" fill="#248BF7"></path>
                <path d="M302.068304,414.763777 L304.572485,407.597477 C312.670585,389.572518 330.52879,377.918059 350.288799,377.762598 L368.882496,377.616029 C372.928302,377.584312 376.934703,377.067233 380.819763,376.089541 C382.272245,375.724077 384.470552,382.430726 385.88459,381.937675 C387.556446,381.35524 388.435624,373.548117 390.040924,372.79148 C392.160179,371.792403 394.215039,370.643632 396.189646,369.349974 L418.486032,354.742013 C421.437851,352.808254 425.067976,355.9732 423.554463,359.160972 L414.077646,379.11969 C405.79309,396.567741 388.666292,407.250995 370.353239,407.961258 C368.150127,408.046797 367.557841,401.054698 365.333825,400.845896 C363.841216,400.705574 360.71904,407.431204 359.227152,407.154403 C356.754207,406.695472 354.287991,406.04672 351.846042,405.199739 C333.479648,396.970687 302.068304,414.763777 302.068304,414.763777" id="Fill-81" fill="#DEF1FF"></path>
                <path d="M318.727353,403.419565 C318.473378,403.419565 318.223729,403.298225 318.069471,403.072844 C317.821263,402.710023 317.91401,402.214329 318.276831,401.966122 C327.872105,395.400997 339.062107,392.109184 350.64208,392.447496 C353.028764,392.516937 355.452932,392.723576 357.797568,392.923487 C358.875216,393.015514 359.939649,393.106339 360.981496,393.182027 C379.807062,394.553536 392.069185,389.615576 404.719839,375.57299 C407.766568,372.191073 415.27118,364.446182 415.346628,364.368332 C415.653223,364.052606 416.156846,364.044917 416.472572,364.350791 C416.788298,364.656666 416.796227,365.16101 416.490112,365.476736 C416.414665,365.554346 408.930236,373.278573 405.902969,376.638865 C392.87652,391.098093 380.250375,396.1807 360.865922,394.770507 C359.817588,394.694098 358.746187,394.602793 357.662291,394.510286 C355.339761,394.312056 352.937699,394.107339 350.595466,394.0391 C339.362695,393.71136 328.491543,396.906821 319.176192,403.280444 C319.038513,403.374393 318.882092,403.419565 318.727353,403.419565" id="Fill-83" fill="#FFFFFF"></path>
                <path d="M302.263602,414.265656 L307.77799,388.92999 C312.934603,365.238067 325.844997,343.965267 344.433889,328.460828 C345.352713,327.69434 346.701876,327.748402 347.539005,328.603313 L350.316863,331.439558 C352.113905,329.999089 350.678242,323.258081 352.277774,321.640528 C363.872885,309.913024 370.151598,293.793232 369.381506,277.113832 C369.207304,273.344826 374.305529,272.016087 375.993244,275.390556 L382.61964,288.639262 C387.282961,297.963502 388.625637,308.12247 387.058301,317.732401 C386.833881,319.108475 381.096515,319.944403 380.754119,321.293806 C380.417008,322.621584 385.476549,324.463077 385.027469,325.757456 C381.41104,336.180249 374.198846,345.390357 363.991342,351.3668 C350.109022,359.494695 337.823832,370.084 327.737669,382.615716 L302.263602,414.265656 Z" id="Fill-85" fill="#FFFFFF"></path>
                <path d="M366.519262,328.90664 C366.367647,328.90664 366.214349,328.86315 366.079073,328.772324 C365.71457,328.527961 365.616537,328.033469 365.860179,327.667765 C373.901333,315.598105 376.096516,300.907248 372.571873,282.755663 C372.488016,282.324123 372.768901,281.906039 373.19924,281.821941 C373.63102,281.737604 374.046461,282.01969 374.129838,282.45123 C377.739058,301.036037 375.465305,316.115904 367.179788,328.55271 C367.026971,328.782416 366.775639,328.90664 366.519262,328.90664" id="Fill-87" fill="#DEF1FF"></path>
                <path d="M315.268354,388.200913 C315.206362,388.200913 315.143409,388.193705 315.080456,388.178327 C314.653001,388.074767 314.390617,387.644429 314.493937,387.216974 C314.548961,386.990391 320.274793,364.354251 345.422322,346.802881 C350.125049,343.520439 356.565469,339.025313 362.020267,332.702629 C362.308121,332.369603 362.810062,332.3326 363.143568,332.619973 C363.476354,332.907106 363.513357,333.410008 363.226224,333.742794 C357.640714,340.216853 351.105384,344.778056 346.333697,348.108554 C321.674654,365.319209 316.095152,387.371232 316.04181,387.592048 C315.953387,387.95631 315.62757,388.200913 315.268354,388.200913" id="Fill-89" fill="#DEF1FF"></path>
                <path d="M23.1124585,224.795295 C23.1124585,224.795295 21.8572446,159.935527 53.0492146,122.718098 C55.9854157,119.214359 56.624556,116.517956 60.1768306,113.860237 C62.0973752,112.423613 67.5060401,115.921825 68.2934322,114.875173 C68.9102266,114.055343 66.8219678,104.980031 67.4255469,104.163085 C84.1246496,81.5675525 94.1312804,62.6691823 99.4839605,52.2624881 C100.672617,49.9514912 104.098265,50.3890381 104.664842,52.9256562 C107.100783,63.8366946 110.518021,85.4956224 105.929186,107.711035 C105.425082,110.152022 99.3285004,109.394905 98.6189586,111.835893 C98.1213422,113.547155 103.06651,118.460366 102.458126,120.160335 C98.8640424,130.205651 93.8066644,140.54819 84.8063192,148.496357 C47.1619153,181.740544 23.1124585,224.795295 23.1124585,224.795295" id="Fill-91" fill="#FFFFFF"></path>
                <path d="M52.5579656,157.878168 C52.3477221,157.878168 52.1381994,157.795512 51.9815379,157.631162 C51.6783067,157.312793 51.6903206,156.808929 52.0086894,156.505458 C74.6563624,134.923659 86.2192759,111.957377 91.9314123,96.4913829 C98.1238651,79.7242814 98.9682031,67.9100368 98.975892,67.7925407 C99.005206,67.3540328 99.3831637,67.0224487 99.8228731,67.0508016 C100.261621,67.0798752 100.593686,67.4587941 100.564853,67.8975423 C100.556923,68.0169607 99.7065784,80.0118945 93.4485296,96.980109 C87.6796875,112.621026 75.9980765,135.844646 53.1072418,157.658313 C52.9532234,157.805123 52.7554744,157.878168 52.5579656,157.878168" id="Fill-93" fill="#DEF1FF"></path>
                <path d="M297.03308,367.12281 L294.473155,371.8969 C290.562865,379.188626 285.6201,385.871007 279.802001,391.738603 C279.347394,392.197054 279.453597,394.823296 279.593199,396.696025 C279.685706,397.934179 278.399256,398.810234 277.287008,398.258075 C275.999837,397.619175 274.635296,396.79526 273.97405,397.495191 C265.773592,406.172122 259.462922,416.481503 255.468055,427.771941 L254.083331,431.684873 C264.486661,429.220579 274.580753,426.181539 284.2039,422.573519 L295.061356,399.871544 C298.530014,392.619223 300.960669,384.914939 302.2822,376.985034 L303.555435,369.347307 C304.204907,365.449993 298.900042,363.640937 297.03308,367.12281" id="Fill-95" fill="#FFFFFF"></path>
                <path d="M233.532254,361.182554 C232.228504,361.182554 231.167675,362.243382 231.167675,363.547133 C231.167675,364.850883 232.228504,365.911471 233.532254,365.911471 C234.836004,365.911471 235.896593,364.850883 235.896593,363.547133 C235.896593,362.243382 234.836004,361.182554 233.532254,361.182554 M233.532254,367.504036 C231.350287,367.504036 229.575111,365.72886 229.575111,363.547133 C229.575111,361.365165 231.350287,359.589989 233.532254,359.589989 C235.714222,359.589989 237.489157,361.365165 237.489157,363.547133 C237.489157,365.72886 235.714222,367.504036 233.532254,367.504036" id="Fill-97" fill="#248BF7"></path>
                <path d="M31.9935536,48.9868939 C29.6229677,48.9868939 27.6942537,50.915608 27.6942537,53.2861939 C27.6942537,55.6567797 29.6229677,57.5854938 31.9935536,57.5854938 C34.3641395,57.5854938 36.2928535,55.6567797 36.2928535,53.2861939 C36.2928535,50.915608 34.3641395,48.9868939 31.9935536,48.9868939 M31.9935536,59.1780585 C28.7447505,59.1780585 26.1019293,56.534997 26.1019293,53.2861939 C26.1019293,50.0373907 28.7447505,47.3943292 31.9935536,47.3943292 C35.2423567,47.3943292 37.8854182,50.0373907 37.8854182,53.2861939 C37.8854182,56.534997 35.2423567,59.1780585 31.9935536,59.1780585" id="Fill-99" fill="#248BF7"></path>
                <path d="M28.5167504,74.347165 C27.058261,74.347165 25.872007,75.5336593 25.872007,76.9919085 C25.872007,78.4501576 27.058261,79.6366519 28.5167504,79.6366519 C29.9752398,79.6366519 31.1614938,78.4501576 31.1614938,76.9919085 C31.1614938,75.5336593 29.9752398,74.347165 28.5167504,74.347165 M28.5167504,81.2292166 C26.1805243,81.2292166 24.2794423,79.3283748 24.2794423,76.9919085 C24.2794423,74.6554421 26.1805243,72.7546003 28.5167504,72.7546003 C30.8532168,72.7546003 32.7540585,74.6554421 32.7540585,76.9919085 C32.7540585,79.3283748 30.8532168,81.2292166 28.5167504,81.2292166" id="Fill-101" fill="#248BF7"></path>
                <path d="M382.477491,249.327783 C382.379457,249.327783 382.279742,249.309522 382.18315,249.271077 C381.774437,249.108169 381.575246,248.645152 381.737914,248.236679 L400.887856,200.165878 C401.050765,199.757405 401.513781,199.558214 401.922494,199.720883 C402.330968,199.883551 402.530158,200.346568 402.36749,200.755281 L383.217548,248.826082 C383.093324,249.137723 382.793938,249.327783 382.477491,249.327783" id="Fill-103" fill="#248BF7"></path>
                <path d="M149.355551,95.066148 C149.257518,95.066148 149.157802,95.0478869 149.06121,95.0094424 C148.652737,94.8465337 148.453306,94.3835173 148.616215,93.9748039 L167.766157,45.9042433 C167.928585,45.4957701 168.392082,45.2963391 168.800555,45.4590075 C169.209028,45.6219162 169.408219,46.0849326 169.24555,46.493646 L150.095609,94.5642066 C149.971385,94.8760879 149.671998,95.066148 149.355551,95.066148" id="Fill-105" fill="#248BF7"></path>
                <path d="M393.897271,265.28493 C393.799237,265.28493 393.699522,265.266669 393.60293,265.228225 C393.194457,265.065316 392.995026,264.6023 393.157694,264.193827 L401.689497,242.77758 C401.852165,242.369107 402.315181,242.169676 402.723895,242.332344 C403.132368,242.495253 403.331559,242.958269 403.16889,243.366983 L394.637328,264.783229 C394.513104,265.09487 394.213717,265.28493 393.897271,265.28493" id="Fill-107" fill="#248BF7"></path>
                <path d="M131.490931,104.912778 C131.392897,104.912778 131.293181,104.894516 131.196349,104.856072 C130.787876,104.693163 130.588685,104.230147 130.751354,103.821433 L139.283156,82.4051867 C139.445584,81.9969539 139.909081,81.7975228 140.317555,81.9601913 C140.726028,82.1231 140.925218,82.5861163 140.76255,82.9945894 L132.230988,104.410836 C132.106764,104.722717 131.807377,104.912778 131.490931,104.912778" id="Fill-109" fill="#248BF7"></path>
                <path d="M262.985402,351.751437 C262.887368,351.751437 262.787653,351.733176 262.691061,351.694732 C262.282588,351.531823 262.083157,351.068807 262.245825,350.660334 L281.396007,302.589533 C281.558435,302.1813 282.021692,301.981869 282.430405,302.144537 C282.838879,302.307446 283.03831,302.770462 282.875401,303.178935 L263.725459,351.249736 C263.601235,351.561377 263.301849,351.751437 262.985402,351.751437" id="Fill-111" fill="#248BF7"></path>
                <path d="M204.075694,350.833238 C203.975738,350.833238 203.874341,350.814256 203.776067,350.77437 C203.368555,350.608578 203.172728,350.14412 203.33828,349.736608 L212.557999,327.067069 C212.723791,326.659557 213.18849,326.46373 213.595521,326.629522 C214.003033,326.795315 214.1991,327.259772 214.033549,327.667285 L204.813589,350.336823 C204.687923,350.645821 204.390219,350.833238 204.075694,350.833238" id="Fill-113" fill="#248BF7"></path>
                <path d="M58.530828,28.8236987 C58.2931928,28.8236987 58.0555575,28.7328735 57.8741474,28.5514633 C57.5110869,28.1888834 57.5110869,27.600682 57.8741474,27.2378618 L59.9717771,25.1402321 C60.3345974,24.7774118 60.9223181,24.7774118 61.2853787,25.1402321 C61.6481989,25.5030523 61.6481989,26.0912537 61.2853787,26.4538336 L59.187749,28.5514633 C59.0060985,28.7328735 58.7684633,28.8236987 58.530828,28.8236987" id="Fill-115" fill="#248BF7"></path>
                <path d="M49.7034592,37.6511636 C49.4658239,37.6511636 49.2281887,37.5603384 49.0467786,37.3791686 C48.683718,37.0163483 48.683718,36.428147 49.0467786,36.0653267 L51.1444083,33.967697 C51.5072285,33.6048768 52.0951896,33.6048768 52.4580098,33.967697 C52.8208301,34.3305173 52.8208301,34.9187186 52.4580098,35.2812986 L50.3603801,37.3791686 C50.17897,37.5603384 49.9410945,37.6511636 49.7034592,37.6511636" id="Fill-117" fill="#248BF7"></path>
                <path d="M60.6284818,37.6511636 C60.3908465,37.6511636 60.1532113,37.5603384 59.9718011,37.3791686 L57.8739311,35.2812986 C57.5111109,34.9187186 57.5111109,34.3305173 57.8739311,33.967697 C58.2369917,33.6048768 58.8247124,33.6048768 59.1875327,33.967697 L61.2854027,36.0653267 C61.6482229,36.428147 61.6482229,37.0163483 61.2854027,37.3791686 C61.1037523,37.5603384 60.866117,37.6511636 60.6284818,37.6511636" id="Fill-119" fill="#248BF7"></path>
                <path d="M51.8011129,28.8236987 C51.5634777,28.8236987 51.3258424,28.7328735 51.1444323,28.5514633 L49.0465623,26.4538336 C48.683742,26.0912537 48.683742,25.5030523 49.0465623,25.1402321 C49.4096228,24.7774118 49.9973436,24.7774118 50.3601639,25.1402321 L52.4580339,27.2378618 C52.8208541,27.600682 52.8208541,28.1888834 52.4580339,28.5514633 C52.2766237,28.7328735 52.0387482,28.8236987 51.8011129,28.8236987" id="Fill-121" fill="#248BF7"></path>
            </g>
        </g>
    </g>
</svg>