<?xml version="1.0" encoding="UTF-8"?>
<svg width="12.221px" height="15.7905px" viewBox="0 0 12.221 15.7905" version="1.1" xmlns="http://www.w3.org/2000/svg" xmlns:xlink="http://www.w3.org/1999/xlink">
    <title>编组</title>
    <g id="11111" stroke="none" stroke-width="1" fill="none" fill-rule="evenodd">
        <g id="登陆页（后台）2" transform="translate(-1013.000000, -627.000000)" fill="#D5D7DB" fill-rule="nonzero">
            <g id="编组-3" transform="translate(420.000000, 174.000000)">
                <g id="图文" transform="translate(0.000000, 76.000000)">
                    <g id="文字" transform="translate(480.000000, 0.000000)">
                        <g id="编组-7" transform="translate(100.000000, 77.000000)">
                            <g id="编组-5备份" transform="translate(0.000000, 288.000000)">
                                <g id="编组" transform="translate(13.000000, 12.000000)">
                                    <path d="M10.258,0 L1.9635,0 C0.878684621,0.00137947133 8.8817842e-16,0.881183744 8.8817842e-16,1.966 L8.8817842e-16,13.8305 C8.8817842e-16,14.9129781 0.87752189,15.7905 1.96,15.7905 L10.2575,15.7905 C11.3423154,15.7891205 12.221,14.9093163 12.221,13.8245 L12.221,1.968 L12.221,1.9585 C12.221,0.876850317 11.3441497,0 10.2625,0 L10.258,0 Z M1.961,1.968 C1.961,1.9625 1.963,1.9605 1.9635,1.9605 L10.2575,1.9605 C10.263,1.9605 10.26,1.958 10.26,1.968 L10.26,9.804 L1.9605,9.804 L1.9605,1.968 L1.961,1.968 Z M4.798,12.2385 C4.798,11.645 5.274,11.164 5.8715,11.164 L6.7695,11.164 C7.362,11.164 7.843,11.6405 7.843,12.2385 L7.843,12.242 C7.843,12.833497 7.36349697,13.313 6.772,13.313 L5.8705,13.313 C5.27817461,13.313 4.798,12.8328254 4.798,12.2405 L4.798,12.2385 L4.798,12.2385 Z" id="形状"></path>
                                </g>
                            </g>
                        </g>
                    </g>
                </g>
            </g>
        </g>
    </g>
</svg>