<?xml version="1.0" encoding="utf-8"?>
<!-- Generator: Adobe Illustrator 27.2.0, SVG Export Plug-In . SVG Version: 6.00 Build 0)  -->
<svg version="1.1" id="图层_1" xmlns="http://www.w3.org/2000/svg" xmlns:xlink="http://www.w3.org/1999/xlink" x="0px" y="0px"
	 viewBox="0 0 32 32" style="enable-background:new 0 0 32 32;" xml:space="preserve">
<style type="text/css">
	.st0{fill:#0356CA;}
	.st1{fill:#FFFFFF;}
</style>
<circle class="st0" cx="16" cy="16" r="15"/>
<g>
	<path class="st1" d="M22.1,11.4l1.2-0.6l-1.2-0.6l-1.2,0.6L22.1,11.4z"/>
	<path class="st1" d="M20.9,8.6L19.7,8l-1.2,0.6l1.2,0.6L20.9,8.6z"/>
	<path class="st1" d="M20.9,9.7l-1.2-0.6l-1.2,0.6l1.2,0.6L20.9,9.7z"/>
	<path class="st1" d="M22.1,11.4L20.9,12l-1.2-0.6l1.2-0.6l-1.2-0.6l-1.2,0.6l-1.2-0.6l1.2-0.6l-1.2-0.6L16,9.7l-1.2-0.6l-1.2,0.6
		l1.2,0.6l-1.2,0.6l-1.2-0.6l-1.2,0.6l1.2,0.6L11.1,12l-1.2-0.6L4,14.2c5.7,0.8,11.3,4.5,12,4.9c0.7-0.4,5.9-3.9,11.9-4.9L22.1,11.4
		z M13.6,12.1l-1.2-0.6l1.2-0.6l1.2,0.6L13.6,12.1z M16,17.8c-0.5,0-0.9-0.4-0.9-0.9c0-0.5,0.4-0.9,0.9-0.9s0.9,0.4,0.9,0.9
		C16.8,17.4,16.4,17.8,16,17.8z M16,10.9l-1.2-0.6L16,9.8l1.2,0.5L16,10.9z M18.5,13.2l-1.2-0.6l1.2-0.6l1.2,0.6L18.5,13.2z"/>
	<path class="st1" d="M6,17.9l-1.3,0.6c5.6,0.5,9.1,3.4,10.7,4.9C15.8,23.8,16,24,16,24C14.2,20.6,8.2,18.1,6,17.9z"/>
	<path class="st1" d="M15.3,23.4c-1.3-1.2-4.5-3.5-9.4-4.1c-0.1,0-0.2,0-0.3,0l-0.9,1C4.7,20.2,9.9,19.6,15.3,23.4
		C15.8,23.8,16,24,16,24S15.8,23.7,15.3,23.4z"/>
	<path class="st1" d="M15.3,23.4C15.8,23.8,16,24,16,24S15.8,23.7,15.3,23.4z"/>
	<path class="st1" d="M5.1,20.9l-1,1c0,0,6.3-1.7,12,2.1c-0.2-0.2-0.5-0.4-0.8-0.6C13.8,22.4,10.2,20.5,5.1,20.9z"/>
	<path class="st1" d="M16,24c0,0-0.3-0.2-0.8-0.6C15.5,23.6,15.8,23.8,16,24z"/>
	<path class="st1" d="M5.6,17.1l2.5-0.7c0,0,7,1.8,7.9,7.7C16,24,13.7,19.4,5.6,17.1z"/>
	<path class="st1" d="M26,17.9l1.3,0.6c-5.6,0.5-9.1,3.4-10.7,4.9C16.2,23.8,16,24,16,24C17.8,20.6,23.8,18.1,26,17.9z"/>
	<path class="st1" d="M16.7,23.4c1.3-1.2,4.5-3.5,9.4-4.1c0.1,0,0.2,0,0.3,0l0.9,1C27.3,20.2,22.1,19.6,16.7,23.4
		C16.2,23.8,16,24,16,24S16.2,23.7,16.7,23.4z"/>
	<path class="st1" d="M16.7,23.4C16.2,23.8,16,24,16,24S16.2,23.7,16.7,23.4z"/>
	<path class="st1" d="M26.9,20.9l1,1c0,0-6.3-1.7-12,2.1c0.2-0.2,0.5-0.4,0.8-0.6C18.2,22.4,21.8,20.5,26.9,20.9z"/>
	<path class="st1" d="M16,24c0,0,0.3-0.2,0.8-0.6C16.5,23.6,16.3,23.8,16,24z"/>
	<path class="st1" d="M26.4,17.1l-2.5-0.7c0,0-7,1.8-7.9,7.7C16,24,18.3,19.4,26.4,17.1z"/>
</g>
</svg>
