<?xml version="1.0" encoding="UTF-8"?>
<svg width="40px" height="40px" viewBox="0 0 40 40" version="1.1" xmlns="http://www.w3.org/2000/svg" xmlns:xlink="http://www.w3.org/1999/xlink">
    <title>erwima</title>
    <g id="erwima" stroke="none" stroke-width="1" fill="none" fill-rule="evenodd">
        <polygon id="矩形" fill="#0451D9" points="40 0 40 40 0 40"></polygon>
        <path d="M31.6923077,31.6923077 L33.8461539,31.6923077 L33.8461539,29.5384615 L36,29.5384615 L36,32.7692308 L33.8461539,32.7692308 L33.8461539,33.8461539 L31.6923077,33.8461539 L31.6923077,32.7692308 L29.5384615,32.7692308 L29.5384615,29.5384615 L31.6923077,29.5384615 L31.6923077,31.6923077 Z M22,29.5384615 L28.4615385,29.5384615 L28.4615385,36 L22,36 L22,29.5384615 L22,29.5384615 Z M24.1538462,31.6923077 L24.1538462,33.8461539 L26.3076923,33.8461539 L26.3076923,31.6923077 L24.1538462,31.6923077 Z M22,22 L28.4615385,22 L28.4615385,28.4615385 L22,28.4615385 L22,22 Z M24.1538462,24.1538462 L24.1538462,26.3076923 L26.3076923,26.3076923 L26.3076923,24.1538462 L24.1538462,24.1538462 Z M29.5384615,22 L36,22 L36,28.4615385 L29.5384615,28.4615385 L29.5384615,22 L29.5384615,22 Z M31.6923077,24.1538462 L31.6923077,26.3076923 L33.8461539,26.3076923 L33.8461539,24.1538462 L31.6923077,24.1538462 Z M33.8461539,33.8461539 L36,33.8461539 L36,36 L33.8461539,36 L33.8461539,33.8461539 Z M29.5384615,33.8461539 L31.6923077,33.8461539 L31.6923077,36 L29.5384615,36 L29.5384615,33.8461539 Z" id="形状" fill="#FFFFFF" fill-rule="nonzero"></path>
    </g>
</svg>